<?xml version="1.0" encoding="utf-8" ?><svg xmlns="http://www.w3.org/2000/svg" xmlns:xlink="http://www.w3.org/1999/xlink" width="1024" height="1024" viewBox="0 0 1024 1024"><path fill="#31272F" d="M155.628 221.319C160.714 204.327 166.799 191.514 176.365 176.56C239.528 77.8103 372.557 32.8285 485.48 42.4931C509.824 44.7515 533.887 49.3989 557.321 56.3682C626.292 76.9502 694.194 123.254 739.095 179.264C744.277 185.727 763.417 208.727 763.721 216.261C760.551 225.203 724.165 229.83 715.136 232.119C716.871 235.64 718.778 239 720.562 242.484C730.667 262.216 737.233 283.208 741.752 304.864C743.251 312.052 745.212 320.09 745.955 327.371C751.549 331.306 757.041 334.727 762.294 339.225C784.822 358.517 796.965 381.471 802.313 410.338C809.44 448.808 799.521 483.871 777.527 515.624C752.452 551.826 709.199 584.808 669.568 603.921C660.242 608.383 650.805 612.609 641.266 616.597C635.145 619.097 628.414 621.464 622.491 624.18L622.994 624.725C627.637 629.704 633.136 633.936 637.954 638.878C655.053 656.393 670.426 674.867 682.481 696.261C685.16 701.016 693.857 709.688 687.907 715.235C682.522 720.257 665.138 712.745 661.135 714.897C661.399 717.427 666.226 721.827 667.96 723.918C682.058 740.913 694.365 761.173 703.921 781.13C731.148 837.993 750.021 898.302 766.673 958.966C767.636 962.474 768.651 966.088 769.409 969.617C766.126 972.174 764.207 973.386 760.084 974.716C754.415 977.093 748.703 979.363 742.95 981.525C740.13 982.979 739.215 983.242 736.242 984.115C726.688 987.13 719.106 989.937 709.276 992.374L706.397 992.279C704.191 992.511 702.041 992.59 699.98 993.355C698.79 996.057 695.098 995.958 692.864 994.689C691.993 993.573 691.585 992.32 691.318 990.933C687.472 970.977 684.579 950.38 679.374 930.731C659.047 946.131 625.077 955.237 599.805 957.065C600.802 964.632 604.715 998.301 602.867 1004.12C601.19 1005.84 599.766 1005.55 597.553 1005.38C596.127 999.012 594.976 986.449 594.189 979.717C592.398 964.392 590.954 949.151 588.578 933.859C578.746 870.579 566.486 803.217 543.183 743.524C540.69 742.825 538.257 742.458 535.71 742.012C551.283 781.58 561.067 824.721 570.46 866.16C573.059 877.623 575.498 889.402 577.358 900.994C581.543 925.821 585.033 950.759 587.823 975.781C588.679 983.778 590.501 998.524 590.514 1006.22L588.528 1006.31C583.922 1007 569.123 1008.3 564.607 1007.84L562.496 1007.81C558.272 1008.39 543.822 1008.11 539.121 1008.07C503.695 1007.78 467.679 1004.38 432.368 1001.47C430.414 1001.4 428.081 1001.24 426.323 1000.44C420.599 998.997 413.976 998.345 408.062 997.527C398.434 996.222 388.815 994.846 379.207 993.399C357.397 989.815 335.751 985.292 314.33 979.845C310.656 978.947 298.928 976.522 296.582 974.349C293.042 974.953 288.175 975.568 288.012 970.216C287.863 965.314 288.742 959.698 289.366 954.8C291.58 938.078 294.462 921.452 298.005 904.96C311.726 840.756 328.199 788.239 367.298 734.391C376.002 722.405 384.922 710.394 394.23 698.87C399.55 692.283 405.573 686.203 410.498 679.311C410.395 671.426 410.361 667.785 415.382 661.147C402.534 660.838 389.108 660.425 376.366 659.228C313.541 653.322 250.772 631.095 200.475 592.418C136.547 543.257 87.3551 464.954 90.0136 382.206C91.1092 348.106 102.17 313.067 121.453 284.868C125.109 279.564 129.149 275.746 133.451 271.179C111.557 276.48 89.6223 291.009 74.4304 307.401C73.7218 308.165 72.6493 308.678 71.6172 308.723C65.108 304.408 78.3129 282.503 81.9427 277.999C97.0226 259.287 117.505 249.312 141.115 246.568C129.999 239.983 105.964 235.899 92.9596 234.274C86.7745 233.501 80.2056 234.754 74.1062 234.202C73.9144 233.792 73.7227 233.382 73.5309 232.973C76.3839 227.204 92.8305 227.598 99.0386 228.068C110.4 228.928 123.657 231.908 133.957 237.366C135.572 238.221 138.738 240.042 140.352 240.182C140.155 238.865 133.264 225.753 132.091 222.709C121.898 196.245 121.736 165.9 139.371 142.504C141.201 140.076 142.664 138.269 145.721 139.688C147.464 142.434 144.471 152.347 144.069 155.975C141.648 177.875 144.512 201.971 155.628 221.319ZM77.9108 293.897C84.221 289.398 90.5172 283.957 96.7364 279.721C112.281 269.132 138.479 260.081 157.489 262.188C154.464 264.668 144.246 272.996 142.908 276.08C113.237 307.576 101.301 352.037 102.208 394.642C102.605 413.32 107.611 442.11 115.22 459.192C115.312 460.914 115.866 462.172 116.806 463.607C117.494 465.404 118.143 467.339 119.116 468.983C119.829 473.139 124.224 481.053 126.146 485.084C154.314 544.16 205.872 589.52 264.531 617.141C272.853 621.06 311.214 635.948 319.16 636.168C317.285 634.53 316.564 634.99 314.711 634.158C296.388 625.887 280.093 610.654 272.034 592.098C264.305 574.304 266.491 559.908 273.375 542.598C268.324 539.596 263.518 536.2 259.002 532.441C231.808 509.944 200.739 460.466 197.468 425.093C201.551 434.846 205.131 444.767 209.408 454.458C219.699 478.409 233.994 500.434 251.68 519.586C256.263 524.583 269.058 536.694 274.774 540.12C287.963 523.737 300.583 516.685 321.033 512.507C298.523 488.679 266.603 427.709 267.415 395.807C267.932 396.571 269.3 404.75 270.01 406.921C273.213 416.675 276.908 426.26 281.08 435.641C297.83 474.307 319.052 507.928 350.943 536.202C358.813 543.18 367.341 548.058 375.194 554.55C371.605 544.957 367.643 536.34 364.247 526.365C360.579 515.587 356.776 504.371 352.943 493.738C351.692 490.267 345.186 480.504 343.051 476.613C333.915 459.97 329.092 446.647 326.668 427.936C331.769 442.218 337.946 456.094 345.146 469.442C359.915 497.276 376.888 516.445 403.539 533.36C410.018 537.472 415.659 541.642 423.108 543.928C417.132 535.994 409.437 525.68 404.626 517.105C380.037 473.283 364.127 424.963 352.487 376.243C350.912 369.654 345.802 351.508 346.385 345.688L346.956 345.529C351.11 350.968 357.832 378.694 360.484 387.032C364.441 399.471 367.675 413.288 372.873 425.527C374.647 368.475 368.708 315.67 344.236 263.117C338.937 251.736 330.247 241.507 324.284 229.593C333.604 236.775 342.189 251.381 351.271 255.825C411.022 285.062 501.22 276.174 562.298 258.891C544.615 250.334 530.812 244.27 514.253 233.279C506.947 228.429 492.921 216.853 486.603 213.96C480.426 211.133 465.643 207.213 458.153 204.366C439.592 197.204 421.331 189.285 403.417 180.63C393.894 176.121 383.107 171.223 374.148 165.85C389.029 170.521 403.492 177.162 417.926 183.209C434.004 190.009 450.342 196.178 466.902 201.702C478.071 205.369 489.59 209.236 501.081 212.08C573.538 230.015 649.651 223.469 723.216 217.444C731.987 216.726 741.317 214.274 749.99 212.764C746.308 206.571 722.356 174.434 716.85 171.32C712.38 165.842 707.135 160.864 702.136 155.877C632.454 86.3509 532.034 45.9536 433.17 53.5859C428.321 53.3053 404.925 55.2501 400.895 56.8755C390.056 57.8122 374.7 61.2778 364.065 63.834C302.458 78.6407 242.99 111.307 201.839 160.131C188.617 176.047 177.989 193.948 170.347 213.176C169.285 215.818 166.744 222.381 166.611 225.125C165.709 227.654 164.887 229.91 164.18 232.514C162.285 236.829 161.346 241.023 160.502 245.629L160.644 245.578C159.937 248.136 159.677 249.472 158.286 251.793L157.663 252.097L156.823 251.755C145.327 247.15 130.081 253.064 119.248 257.404C103.398 263.754 85.5877 278.299 77.9108 293.897ZM552.557 742.558C555.501 752.762 559.1 762.672 562.321 772.793C567.473 788.803 572.256 804.93 576.666 821.161C580.339 820.701 586.203 818.911 589.869 817.94C605.834 813.711 628.478 805.576 641.061 794.904C633.09 773.879 623.487 752.579 613.566 732.42C611.899 729.032 610.243 726.347 608.014 723.319C606.546 726.713 605.214 730.047 603.015 733.04C592.252 747.689 568.041 749.534 552.557 742.558ZM598.357 941.375C603.217 942.742 613.438 939.931 618.462 938.659C636.193 934.171 661.564 926.493 675.654 914.342C675.156 908.482 672.672 899.11 671.192 893.305C668.948 884.459 666.614 875.634 664.192 866.835C647.359 879.992 628.437 886.211 607.982 891.79C602.322 893.333 596.51 893.907 591.014 895.1C593.634 910.497 596.082 925.923 598.357 941.375ZM588.473 879.472C620.088 870.712 631.232 871.084 659.864 851.434C657.503 841.591 650.551 821.048 646.931 811.42C631.074 820.593 617.546 826.451 599.709 831.179C593.69 832.774 584.514 833.82 579.559 835.257C581.485 844.087 583.259 852.95 584.879 861.841C585.707 866.381 587.061 875.407 588.473 879.472ZM701.095 363.833C741.524 356.47 701.046 252.294 652.777 256.584C630.248 263.885 636.7 292.218 642.133 308.909C649.997 333.072 672.009 365.98 701.095 363.833ZM644.404 667.445C645.503 669.612 647.668 672.972 649.869 674.089C651.989 673.962 651.819 672.911 652.228 670.955C646.275 663.035 628.39 643.524 621.057 637.763L618.631 635.576L617.184 634.221C614.154 631.396 610.811 627.474 606.871 627.615L605.372 629.505C605.956 631.167 615.891 639.161 617.843 640.652C623.903 646.596 629.926 652.577 635.913 658.595C637.747 660.436 643.028 665.554 644.404 667.445ZM518.203 723.927C522.452 721.875 523.43 721.555 528.24 721.471L529.259 721.447L529.87 721.439C523.533 714.218 518.283 708.691 511.908 702.273C497.332 687.599 453.932 652.298 447.06 635.493L447.164 634.502C449.654 635.025 462.834 650.792 467.232 654.849C463.011 644.234 463.241 640.385 460.382 631.21C452.875 630 445.379 628.718 437.896 627.363C433.357 636.559 427.992 652.428 424.46 662.555C435.655 680.76 446.539 699.154 457.108 717.729C466.007 733.16 473.919 746.58 482.164 762.543C492.009 747.783 502.932 733.449 518.203 723.927ZM595.632 707.185C594.036 725.096 574.799 729.343 560.154 727.571C554.656 726.906 550.043 724.437 545.094 723.624L543.613 726.7C547.55 731.288 549.199 733.322 551.778 738.744C552.18 738.885 552.583 739.02 552.989 739.149C565.151 743.005 579.168 744.421 590.748 738.183C600.248 733.065 602.511 726.572 605.421 717.127C603.334 713.749 600.468 708.74 597.92 705.89C595.37 699.135 586.476 691.048 580.517 686.963C585.14 694.462 592.703 700.331 595.632 707.185ZM629.322 745.983L630.289 745.916C631.667 744.349 631.137 741.73 629.729 740.286C628.25 740.559 628.66 740.583 627.465 742.153L629.322 745.983Z"/><path fill="#B3D9DE" d="M342.6 796.557C367.453 794.186 386.109 797.701 406.418 813.876C425.036 828.704 440.06 857.023 442.629 880.78C443.792 891.534 440.806 908.646 439.19 919.698C436.666 937.083 433.977 954.444 431.124 971.778C429.672 980.56 427.382 991.839 426.323 1000.44C420.599 998.997 413.976 998.345 408.062 997.527C398.434 996.222 388.815 994.846 379.207 993.399C357.397 989.815 335.751 985.292 314.33 979.845C310.656 978.947 298.928 976.522 296.582 974.349C298.145 970.97 302.833 938.73 304.089 932.763C311.749 896.37 319.905 859.946 331.854 824.654C334.799 815.957 338.62 804.747 342.6 796.557Z"/><path fill="#B3D9DE" d="M347.525 786.9C395.264 773.009 441.838 816.007 453.82 860.198C461.56 888.743 464.651 911.758 466.953 941.21C476.235 946.585 500.68 960.887 510.425 963.148C524.493 958.258 538.492 948.079 551.6 942.194C553.575 954.79 558.222 998.489 562.483 1007.39L562.496 1007.81C558.272 1008.39 543.822 1008.11 539.121 1008.07C503.695 1007.78 467.679 1004.38 432.368 1001.47C435.95 983.672 438.989 964.999 441.701 947.244C448.027 905.819 458.384 873.36 432.27 835.428C410.612 803.97 382.451 787.499 343.936 793.306C345.109 791.201 346.305 788.965 347.525 786.9Z"/><path fill="#B3D9DE" d="M512.228 759.651C514.158 757.182 529.222 739.677 532.645 742.941C534.884 745.077 538.094 755.819 539.364 759.607C554.745 806.999 566.857 855.391 575.616 904.442C577.365 903.225 576.805 903.758 577.358 900.994C581.543 925.821 585.033 950.759 587.823 975.781C588.679 983.778 590.501 998.524 590.514 1006.22L588.528 1006.31C583.922 1007 569.123 1008.3 564.607 1007.84L562.496 1007.81L562.483 1007.39C562.829 1007.12 563.298 1006.96 563.521 1006.59C564.682 1004.63 552.418 944.016 554.342 938.174C554.476 937.254 548.161 898.345 547.596 895.179L549.571 892.116C542.641 855.91 533.516 823.315 524.029 787.908C550.093 788.048 539.771 755.205 521.739 763.547C518.543 765.026 517.087 769.939 516.405 773.225C515.197 768.641 513.69 764.16 512.228 759.651Z"/><path fill="#251C27" d="M562.483 1007.39C562.829 1007.12 563.298 1006.96 563.521 1006.59C564.682 1004.63 552.418 944.016 554.342 938.174L558.454 965.799C559.188 970.661 560.505 977.994 560.843 982.695C561.961 979.202 563.129 975.438 566.436 973.466C572.122 970.074 580.876 973.711 583.273 979.688C588.925 993.781 572.233 1005.63 562.041 990.387C562.859 994.758 564.664 1003.74 564.607 1007.84L562.496 1007.81L562.483 1007.39Z"/><path fill="#C98382" d="M569.417 976.997C572.657 976.704 575.356 976.822 577.692 979.445C578.948 980.863 579.573 982.731 579.423 984.619C579.184 987.805 577.397 989.838 575.053 991.737C565.198 993.864 562.022 983.111 569.417 976.997Z"/><path fill="#070708" d="M575.616 904.442C577.365 903.225 576.805 903.758 577.358 900.994C581.543 925.821 585.033 950.759 587.823 975.781C588.679 983.778 590.501 998.524 590.514 1006.22L588.528 1006.31C588.453 999.106 587.06 988.878 586.209 981.562C584.801 968.506 583.141 955.477 581.229 942.485C579.483 930.433 578.052 916.2 575.616 904.442Z"/><path fill="#251C27" d="M563.952 900.166C578.457 901.504 579.842 923.336 564.578 925.84L563.984 925.766C549.531 924.077 546.623 902.242 563.952 900.166Z"/><path fill="#C98382" d="M561.039 905.008C561.404 904.981 561.768 904.961 562.133 904.949C570.967 904.693 572.354 914.188 565.72 919.628C556.539 921.141 553.698 909.835 561.039 905.008Z"/><path fill="#B3D9DE" d="M642.99 726.271C682 786.517 703.825 854.771 722.248 923.553C727.582 943.464 731.005 964.37 736.242 984.115C726.688 987.13 719.106 989.937 709.276 992.374C706.032 970.727 701.414 947.609 696.937 926.073C686.253 874.671 672.103 824.059 652.598 775.278C648.84 765.877 643.545 755.378 639.13 746.154C639.773 738.768 641.148 733.369 642.99 726.271Z"/><path fill="#B3D9DE" d="M644.749 715.659C654.943 721.519 664.432 736.423 670.961 746.343C702.49 794.249 725.467 858.776 742.072 913.769L753.813 953.52C755.702 960.081 757.568 968.568 760.084 974.716C754.415 977.093 748.703 979.363 742.95 981.525C734.044 935.901 722.026 890.939 706.982 846.955C694.038 808.493 679.124 770.432 657.844 735.764C653.978 729.465 647.88 722.09 644.749 715.659Z"/><path fill="#B3D9DE" d="M637.986 750.148C646.355 765.062 654.766 787.826 660.423 803.969C681.427 865.214 696.816 928.244 706.397 992.279C704.191 992.511 702.041 992.59 699.98 993.355C699.225 990.688 697.93 980.955 697.322 977.401L691.221 943.016C686.337 917.287 680.44 891.761 673.542 866.498C667.649 844.111 659.613 820.753 652.101 798.81C648.009 786.854 641.404 774.188 638.153 761.857C637.5 759.38 637.894 753.031 637.986 750.148Z"/><path fill="#E2AAA3" d="M675.654 914.342C676.844 919.518 678.379 925.576 679.374 930.731C659.047 946.131 625.077 955.237 599.805 957.065C599.229 951.844 598.747 946.613 598.357 941.375C603.217 942.742 613.438 939.931 618.462 938.659C636.193 934.171 661.564 926.493 675.654 914.342Z"/><path fill="#E2AAA3" d="M588.473 879.472C620.088 870.712 631.232 871.084 659.864 851.434C661.184 856.164 662.71 862.258 664.192 866.835C647.359 879.992 628.437 886.211 607.982 891.79C602.322 893.333 596.51 893.907 591.014 895.1C590.194 889.913 589.138 884.668 588.473 879.472Z"/><path fill="#E2AAA3" d="M576.666 821.161C580.339 820.701 586.203 818.911 589.869 817.94C605.834 813.711 628.478 805.576 641.061 794.904C642.935 800.439 644.892 805.944 646.931 811.42C631.074 820.593 617.546 826.451 599.709 831.179C593.69 832.774 584.514 833.82 579.559 835.257C578.5 830.579 577.366 825.905 576.666 821.161Z"/><path fill="#4E4449" d="M397.12 67.9133C401.662 66.8402 406.757 66.357 411.107 65.3982C418.921 63.6762 424.41 62.0321 432.492 61.6285C436.871 61.4099 453.854 63.1293 456.808 62.4606C471.143 63.7156 485.403 64.066 499.724 65.8124C535.182 70.1368 572.225 80.9758 604.578 96.1048C634.124 109.922 661.719 127.969 687.666 147.644C691.632 150.651 714.277 170.934 716.85 171.32C722.356 174.434 746.308 206.571 749.99 212.764C741.317 214.274 731.987 216.726 723.216 217.444C649.651 223.469 573.538 230.015 501.081 212.08C489.59 209.236 478.071 205.369 466.902 201.702C450.342 196.178 434.004 190.009 417.926 183.209C403.492 177.162 389.029 170.521 374.148 165.85C383.107 171.223 393.894 176.121 403.417 180.63C421.331 189.285 439.592 197.204 458.153 204.366C465.643 207.213 480.426 211.133 486.603 213.96C492.921 216.853 506.947 228.429 514.253 233.279C530.812 244.27 544.615 250.334 562.298 258.891C501.22 276.174 411.022 285.062 351.271 255.825C342.189 251.381 333.604 236.775 324.284 229.593C330.247 241.507 338.937 251.736 344.236 263.117C368.708 315.67 374.647 368.475 372.873 425.527C367.675 413.288 364.441 399.471 360.484 387.032C357.832 378.694 351.11 350.968 346.956 345.529L346.385 345.688C345.802 351.508 350.912 369.654 352.487 376.243C364.127 424.963 380.037 473.283 404.626 517.105C409.437 525.68 417.132 535.994 423.108 543.928C415.659 541.642 410.018 537.472 403.539 533.36C376.888 516.445 359.915 497.276 345.146 469.442C337.946 456.094 331.769 442.218 326.668 427.936C329.092 446.647 333.915 459.97 343.051 476.613C345.186 480.504 351.692 490.267 352.943 493.738C356.776 504.371 360.579 515.587 364.247 526.365C367.643 536.34 371.605 544.957 375.194 554.55C367.341 548.058 358.813 543.18 350.943 536.202C319.052 507.928 297.83 474.307 281.08 435.641C276.908 426.26 273.213 416.675 270.01 406.921C269.3 404.75 267.932 396.571 267.415 395.807C266.603 427.709 298.523 488.679 321.033 512.507C300.583 516.685 287.963 523.737 274.774 540.12C269.058 536.694 256.263 524.583 251.68 519.586C233.994 500.434 219.699 478.409 209.408 454.458C205.131 444.767 201.551 434.846 197.468 425.093C200.739 460.466 231.808 509.944 259.002 532.441C263.518 536.2 268.324 539.596 273.375 542.598C266.491 559.908 264.305 574.304 272.034 592.098C280.093 610.654 296.388 625.887 314.711 634.158C316.564 634.99 317.285 634.53 319.16 636.168C311.214 635.948 272.853 621.06 264.531 617.141C205.872 589.52 154.314 544.16 126.146 485.084C124.224 481.053 119.829 473.139 119.116 468.983C119.299 468.739 119.52 468.076 119.646 467.754C119.384 465.581 119.423 465.452 118.136 463.772L116.806 463.607C115.866 462.172 115.312 460.914 115.22 459.192C117.423 456.954 114.685 449.681 113.933 446.643C100.902 394.003 108.212 336.043 136.628 289.553C138.535 286.434 145.149 278.903 142.908 276.08C144.246 272.996 154.464 264.668 157.489 262.188C138.479 260.081 112.281 269.132 96.7364 279.721C90.5172 283.957 84.221 289.398 77.9108 293.897C85.5877 278.299 103.398 263.754 119.248 257.404C130.081 253.064 145.327 247.15 156.823 251.755L157.663 252.097L158.286 251.793C159.677 249.472 159.937 248.136 160.644 245.578L160.502 245.629C161.346 241.023 162.285 236.829 164.18 232.514L164.63 233.276C166.632 232.176 167.66 227.88 168.441 225.56C169.655 224.729 175.305 214.129 176.389 212.081C221.132 127.589 302.346 82.099 397.12 67.9133ZM544.622 170.03L545.69 169.754C544.636 167.169 532.214 161.28 529.092 160.155C515.432 155.23 495.632 146.869 481.269 147.554L479.51 148.375C477.497 155.735 512.138 165.782 517.391 167.023C521.735 168.05 525.893 168.812 530.334 169.267C535.085 169.708 539.851 169.963 544.622 170.03ZM311.113 297.308C312.917 291.477 312.471 281.388 309.585 275.953C307.399 269.517 303.458 267.8 300.676 275.213C300.301 279.764 299.949 293.67 303.622 297.134C304.638 298.916 304.983 299.912 306.611 301.045C309.454 301.507 309.989 299.629 311.113 297.308ZM588.121 137.661C588.924 136.089 589.601 135.237 589.351 133.518C586.34 127.148 557.826 117.307 550.153 117.393C550.009 118.57 549.586 121.052 550.569 121.822C556.01 126.086 583.108 140.182 588.121 137.661ZM564.886 105.918C563.947 107.454 563.42 108 563.364 109.804C564.495 113.651 589.825 125.776 594.793 128.029C595.374 128.292 597.636 127.99 598.436 127.874C599.659 126.399 599.822 126.428 600.036 124.477C598.19 117.776 571.842 105.342 564.886 105.918ZM287.003 286.733C283.242 293.264 282.255 312.955 290.133 315.831C294.595 308.814 294.224 293.889 289.003 287.487C288.001 287.011 288.062 286.949 287.003 286.733ZM400.742 200.599C398.978 201.328 398.813 201.227 397.757 202.857C397.345 210.842 428.98 219.66 435.846 220.043C436.938 220.098 438.032 220.111 439.125 220.082L440.663 219.794C440.72 218.54 440.518 218.045 439.349 216.984C430.892 209.313 412.657 200.352 401.475 200.577L400.742 200.599Z"/><path fill="#FEFEFE" fill-opacity="0.61176473" d="M300.676 275.213C300.893 277.333 300.553 277.641 301.656 278.992C303.48 279.124 306.896 276.893 309.585 275.953C312.471 281.388 312.917 291.477 311.113 297.308C308.152 295.459 306.36 294.382 303.622 297.134C299.949 293.67 300.301 279.764 300.676 275.213Z"/><path fill="#251C27" d="M567.697 177.141C570.532 178.48 570.548 181.206 568.963 183.568C566.584 182.811 566.928 183.09 565.993 181.531C565.965 179.75 566.799 178.722 567.697 177.141Z"/><path fill="#F8ECD1" d="M509.88 219.673C529.199 223.209 547.463 226.817 567.194 228.462C577.55 229.332 587.922 230.009 598.303 230.494C605.097 230.803 614.159 230.934 620.735 231.677C621.893 233.789 618.914 236.855 619.092 240.011C620.063 241.103 619.461 240.739 621.086 240.858C622.288 240.234 627.188 237.344 627.84 237.114C637.289 233.77 646.057 233.777 655.574 236.795C660.092 238.228 665.279 240.508 669.518 241.426C664.322 235.712 662.942 234.111 656.617 230.086C662.683 229.399 668.702 228.584 674.798 228.416C680.248 233.912 684.415 240.522 688.967 246.556C709.06 273.19 724.723 302.595 737.883 333.15C739.482 336.864 746.688 340.553 749.706 343.162C778.753 365.736 793.102 400.362 793.605 436.844C794.102 472.773 770.126 511.547 744.983 536.591C724.314 557.253 700.662 574.698 674.816 588.342C662.994 594.593 650.761 600.559 638.477 605.83C620.997 613.33 602.605 618.402 584.951 625.422C581.966 626.61 577.625 628.993 575.28 631.309C570.563 637.438 570.219 653.603 570.241 661.123C570.286 676.793 569.462 685.913 581.949 696.898C584.434 699.084 589.927 705.512 591.935 708.529C581.503 733.152 547.412 722.892 531.077 710.911C522.117 704.339 513.782 694.173 505.194 686.986C499.741 681.773 489.283 672.806 484.919 667.335C487.537 658.733 493.867 631.722 480.259 628.481C472.956 626.742 463.723 626.521 456.216 624.907C438.854 621.671 414.343 614.622 399.238 605.828C397.972 609.469 396.951 612.78 394.561 615.861C378.827 636.143 345.171 639.027 322.582 630.674C293.429 619.893 265.776 588.795 274.755 555.836C281.18 532.25 302.773 521.139 325.386 517.893C341.157 535.38 355.208 547.927 375.541 560.107C378.41 561.826 383.929 566.221 387.054 566.44L387.35 565.848C385.258 560.474 380.826 556.522 378.51 550.764C371.916 534.37 366.08 519.733 360.787 502.823C380.268 527.001 406.498 544.841 436.142 554.076C429.405 546.551 425.691 540.655 420.169 532.159C404.605 508.335 392.025 482.69 382.712 455.799C381.021 451.058 376.84 440.337 377.306 435.764C378.515 423.925 379.173 412.218 379.126 400.276C378.952 356.063 369.307 300.74 348.922 261.207C382.762 278.288 417.66 280.103 454.789 279.975C451.233 282.623 445.188 286.744 442.09 289.588C431.558 299.255 420.654 313.474 418.382 327.972C418.036 330.179 417.688 333.401 418.429 335.434L418.985 335.724C421.755 332.932 424.637 326.318 427.039 322.645C431.423 315.944 436.774 309.898 442.691 304.335C452.956 294.686 470.06 285.569 482.984 279.842C485.633 278.668 504.591 276.705 509.291 276.076C528.909 273.451 562.528 266.777 580.14 258.376C556.208 252.579 526.99 234.991 506.382 221.993C507.389 220.396 508.1 220.34 509.88 219.673ZM701.095 363.833C741.524 356.47 701.046 252.294 652.777 256.584C630.248 263.885 636.7 292.218 642.133 308.909C649.997 333.072 672.009 365.98 701.095 363.833Z"/><path fill="#31272F" d="M504.608 307.213C553.027 304.038 597.722 380.207 563.972 418.633C550.762 433.673 532.338 440.92 512.567 442.198C495.883 443.793 477.566 436.525 465.009 425.818C451.877 414.502 443.759 398.447 442.431 381.163C439.607 343.302 466.114 309.702 504.608 307.213Z"/><path fill="#FEFEFE" d="M501.271 313.655L502.608 313.555L503.154 314.038C501.94 316.58 498.037 318.698 496.471 320.781C473.866 350.843 492.722 400.538 523.296 417.858C532.098 422.845 539.298 424.239 549.407 424.004C536.584 431.405 528.959 435.615 513.768 437.078C498.165 437.991 486.694 434.661 473.929 425.563C428.885 393.459 448.22 322.374 501.271 313.655Z"/><path fill="#FEFEFE" d="M532.35 326.762C538.643 326.139 544.259 330.714 544.922 337.003C545.584 343.292 541.044 348.937 534.759 349.638C528.418 350.346 522.713 345.757 522.045 339.412C521.377 333.067 526.001 327.391 532.35 326.762Z"/><path fill="#31272F" d="M652.777 256.584C701.046 252.294 741.524 356.47 701.095 363.833C672.009 365.98 649.997 333.072 642.133 308.909C636.7 292.218 630.248 263.885 652.777 256.584ZM697.907 359.642L698.292 358.879C693.96 356.558 690.21 354.69 686.063 351.418C664.923 334.736 652.456 300.094 659.472 273.967C659.713 273.07 664.603 267.556 665.548 266.495C664.684 263.256 656.498 262.89 653.608 263.075C626.199 273.71 656.676 355.79 697.907 359.642ZM688.874 295.334C691.974 293.504 694.562 290.817 691.442 287.141C688.194 283.314 685.117 282.609 680.331 283.055C672.06 288.737 679.725 297.792 688.874 295.334Z"/><path fill="#FEFEFE" fill-opacity="0.98823529" d="M653.608 263.075C656.498 262.89 664.684 263.256 665.548 266.495C664.603 267.556 659.713 273.07 659.472 273.967C652.456 300.094 664.923 334.736 686.063 351.418C690.21 354.69 693.96 356.558 698.292 358.879L697.907 359.642C656.676 355.79 626.199 273.71 653.608 263.075Z"/><defs><linearGradient id="gradient_0" gradientUnits="userSpaceOnUse" x1="685.81342" y1="290.7807" x2="679.43781" y2="284.56381"><stop offset="0" stop-color="white" stop-opacity="0.95686275"/><stop offset="1" stop-color="white" stop-opacity="0.98823529"/></linearGradient></defs><path fill="url(#gradient_0)" d="M680.331 283.055C685.117 282.609 688.194 283.314 691.442 287.141C694.562 290.817 691.974 293.504 688.874 295.334C679.725 297.792 672.06 288.737 680.331 283.055Z"/><path fill="#31272F" d="M701.654 425.473C707.305 425.398 709.866 430.326 711.091 435.218C719.364 468.263 699.851 510.305 660.876 505.414C652.229 504.328 648.616 503.409 640.939 499.025C631.73 492.551 621.562 478.232 622.604 466.095C622.994 461.557 631.932 459.947 635.845 458.835C653.291 453.879 670.535 446.888 685.9 437.167C691.774 433.485 696.566 428.621 701.654 425.473Z"/><path fill="#FEFEFE" d="M696.361 436.937C697.832 438.994 697.692 453.023 697.358 456.215C697.115 458.536 696.156 459.963 694.291 461.334C676.422 474.468 652.427 480.987 630.437 476.992C628.772 473.732 628.269 470.183 627.711 466.618C655.314 459.93 673.255 453.885 696.361 436.937Z"/><path fill="#E2AAA3" d="M704.584 460.89L704.898 460.963L705.257 461.6C700.894 494.393 671.37 510.721 642.513 493.481C637.685 490.022 636.369 488.451 633.299 483.436C651.821 483.865 671.278 481.637 687.816 472.593C693.67 469.391 699.267 464.958 704.584 460.89Z"/><path fill="#E2AAA3" d="M530.762 455.159C544.628 452.821 551.878 462.402 543.304 474.316C534.713 486.251 520.661 493.652 506.386 496.5C497.222 496.86 491.473 497.211 488.252 487.179C492.155 469.029 513.824 457.654 530.762 455.159Z"/><path fill="#E2AAA3" d="M674.24 367.825C660.124 365.602 649.166 354.519 647.608 340.23L647.973 339.665C652.683 344.05 654.798 352.743 662.039 357.455C668.352 361.563 672.966 363.499 680.282 365.873C691.97 370.885 698.642 382.516 698.912 394.994C699.043 401.031 697.62 409.184 691.168 411.691C673.425 417.798 662.568 397.448 665.097 382.399C666.399 374.654 668.455 372.375 674.24 367.825Z"/><path fill="#31272F" d="M674.24 367.825C660.124 365.602 649.166 354.519 647.608 340.23L647.973 339.665C652.683 344.05 654.798 352.743 662.039 357.455C668.352 361.563 672.966 363.499 680.282 365.873C691.97 370.885 698.642 382.516 698.912 394.994C699.043 401.031 697.62 409.184 691.168 411.691C691.47 409.526 692.421 407.591 692.923 405.48C696.402 390.861 689.554 372.054 674.24 367.825Z"/><path fill="#31272F" d="M325.083 545.211C338.792 545.007 350.065 549.203 360.92 557.606C363.476 559.585 368.416 562.506 366.678 566.126C362.961 566.923 355.818 560.324 351.074 559.52C347.816 558.803 341.36 560.502 338.814 562.506C323.084 574.883 340.034 597.033 356.08 597.852C365.151 598.315 368.444 594.183 374.37 589.346L375.509 589.517C377.053 590.924 376.581 590.093 377.058 592.051C375.492 598.89 365.087 602.833 358.779 603.078C349.05 603.457 341.89 599.636 334.95 593.272C321.825 579.857 325.137 556.934 345.833 555.192C333.36 549.81 315.148 547.188 304.799 558.724C298.233 566.042 301.651 579.058 306.105 586.648C307.613 589.218 311.129 592.792 311.419 595.765L310.645 596.216C296.03 593.028 290.483 562.988 301.725 553.336C310.095 546.148 314.933 545.694 325.083 545.211Z"/><path fill="#E2AAA3" d="M734.167 359.572C752.49 358.811 747.02 384.03 730.228 388.884C711.001 392.477 719.929 364.049 734.167 359.572Z"/><path fill="#B3D9DE" d="M436.335 725.781C439.616 728.237 450.075 748.335 453.525 753.619C463.172 768.393 471.307 786.011 481.268 800.525C483.599 803.92 487.228 801.305 488.692 798.055C490.445 794.16 492.664 789.77 494.673 785.808C498.842 777.671 503.83 769.979 509.559 762.854C512.05 769.28 513.714 776.959 516.322 783.372C516.586 784.021 520.084 786.451 520.092 786.478C525.963 805.886 534 837.863 538.456 856.421C536.051 856.522 533.535 856.736 531.123 856.901C509.068 857.729 482.842 862.242 461.841 862.626C458.694 853.263 455.123 843.858 450.471 835.08C439.672 814.704 416.387 792.636 394.045 785.962C407.128 765.698 422.17 745.339 436.335 725.781Z"/><path fill="#B3D9DE" d="M437.896 627.363C445.379 628.718 452.875 630 460.382 631.21C463.241 640.385 463.011 644.234 467.232 654.849C462.834 650.792 449.654 635.025 447.164 634.502L447.06 635.493C453.932 652.298 497.332 687.599 511.908 702.273C518.283 708.691 523.533 714.218 529.87 721.439L529.259 721.447L528.24 721.471C523.43 721.555 522.452 721.875 518.203 723.927C502.932 733.449 492.009 747.783 482.164 762.543C473.919 746.58 466.007 733.16 457.108 717.729C446.539 699.154 435.655 680.76 424.46 662.555C427.992 652.428 433.357 636.559 437.896 627.363ZM456.292 641.729C457.962 643.19 460.389 646.453 461.52 647.03C462.004 645.339 461.191 643.187 460.709 641.399C459.707 638.195 459.608 635.641 458.141 633.11L457.153 632.602C454.896 633.688 454.72 634.805 453.604 637.242C454.455 638.758 455.278 640.321 456.292 641.729Z"/><path fill="#B3D9DE" fill-opacity="0.8509804" d="M453.604 637.242C454.72 634.805 454.896 633.688 457.153 632.602L458.141 633.11C459.608 635.641 459.707 638.195 460.709 641.399C458.529 641.177 458.312 641.068 456.292 641.729C455.278 640.321 454.455 638.758 453.604 637.242Z"/><path fill="#B3D9DE" fill-opacity="0.50196081" d="M456.292 641.729C458.312 641.068 458.529 641.177 460.709 641.399C461.191 643.187 462.004 645.339 461.52 647.03C460.389 646.453 457.962 643.19 456.292 641.729Z"/><path fill="#B3D9DE" d="M598.026 630.025C598.212 630.013 598.399 629.971 598.584 629.987C602.261 630.321 652.609 684.489 657.444 691.502C651.217 691.201 645.968 690.84 640.321 694.064C631.639 699.022 627.829 709 625.237 717.953C624.304 722.091 623.647 725.454 623.009 729.646C611.332 706.469 596.14 681.052 575.934 664.327C575.821 658.663 575.648 644.511 577.696 639.524C579.693 634.663 592.569 631.72 598.026 630.025Z"/><path fill="#B3D9DE" d="M468.803 896.039C472.973 897.772 479.224 901.422 483.417 903.675C492.721 908.675 501.355 913.131 511.391 916.643C519.454 913.829 536.271 902.012 544.478 897.025C546.003 907.304 546.853 917.672 548.925 927.879C549.378 930.108 550.406 934.574 550.287 936.715C536.837 942.587 523.837 950.445 510.425 956.547C498.041 950.972 485.729 943.317 473.543 936.965C472.668 932.712 472.11 924.628 471.619 919.967C470.816 912.346 469.229 903.505 468.803 896.039Z"/><path fill="#B3D9DE" d="M535.129 861.2C536.311 861.028 537.103 861.06 538.289 861.045C540.077 862.325 543.762 882.506 544.767 886.671C536.682 892.114 519.853 903.871 511.299 907.7C502.129 903.982 494.022 900.007 485.246 895.462C479.272 892.424 473.018 889.381 467.263 885.981C465.78 881.131 464.24 873.19 463.107 868.05C466.058 867.586 469.181 867.525 472.167 867.269C493.18 865.474 514.181 863.636 535.129 861.2Z"/><path fill="#251C27" d="M507.437 870.626C510.317 870.857 512.614 871.503 514.998 873.146C518.25 875.392 520.481 878.833 521.203 882.718C522.509 889.987 518.306 895.124 511.152 896.158C491.776 896.488 491.648 873.249 507.437 870.626Z"/><path fill="#C98382" d="M506.455 875.478C510.111 875.708 513.071 876.713 514.983 880.117C515.963 881.83 516.204 883.868 515.649 885.762C514.822 888.553 513.347 889.529 510.949 890.859C507.665 891.141 504.686 890.219 502.786 887.36C501.563 885.525 501.172 883.259 501.709 881.121C502.42 878.223 504.03 876.895 506.455 875.478Z"/><path fill="#B3D9DE" d="M415.215 688.345C417.672 690.898 425.265 706.09 427.231 710.037C423.128 715.439 418.383 720.607 414.345 726.084C401.045 744.123 388.509 761.214 377.324 780.613C370.13 780.083 365.681 779.77 358.494 780.49C354.207 781.141 352.777 781.787 349.167 783.884C358.327 765.549 371.497 747.261 383.363 730.526C393.54 716.172 403.798 701.766 415.215 688.345Z"/><path fill="#B3D9DE" d="M423.187 666.323C426.487 669.586 433.74 683.096 436.584 687.852C446.39 704.252 455.736 720.956 465.029 737.641C470.179 746.888 475.682 759.798 481.335 768.269C483.686 765.762 487.168 759.951 489.39 756.903C496.41 747.271 503.956 737.386 513.617 730.258C520.004 725.546 524.219 723.439 532.049 724.586C535.052 727.816 538.059 731.235 541.023 734.517C537.044 734.36 533.062 734.065 529.122 734.616C508.584 742.874 493.779 769.355 484.205 788.5C482.52 785.873 480.951 783.178 479.476 780.43C465.813 754.981 450.397 730.52 435.844 705.591C430.39 696.248 424.381 685.844 419.967 676.025C420.61 672.052 421.601 669.925 423.187 666.323Z"/><path fill="#4E4449" d="M402.45 614.7C410.208 618.813 423.623 622.818 432.281 625.572C427.892 634.81 425.402 640.019 422.231 649.886C411.384 649.04 399.455 649.044 388.377 648.46C376.423 647.214 368.328 646.557 356.81 642.693C357.887 642.407 358.962 642.113 360.034 641.811C376.256 637.285 393.756 630.142 402.45 614.7Z"/><path fill="#B3D9DE" d="M601.138 628.992C603.481 628.165 604.387 627.703 606.871 627.615L605.372 629.505C605.956 631.167 615.891 639.161 617.843 640.652C623.903 646.596 629.926 652.577 635.913 658.595C637.747 660.436 643.028 665.554 644.404 667.445C645.503 669.612 647.668 672.972 649.869 674.089C651.989 673.962 651.819 672.911 652.228 670.955C659.834 680.728 669.817 694.82 675.899 705.603C668.327 703.322 654.144 700.019 647.345 704.318C635.573 711.763 632.292 740.513 632.424 752.341L629.322 745.983L630.289 745.916C631.667 744.349 631.137 741.73 629.729 740.286C628.25 740.559 628.66 740.583 627.465 742.153C625.34 737.297 624.498 734.114 625.585 728.799C629.871 707.836 634.946 690.848 659.922 694.681C662.423 697.565 664.056 699.342 666.829 701.947C660.077 685.644 615.265 641.802 601.138 628.992Z"/><path fill="#4E4449" d="M137.106 157.296C137.583 158.634 136.954 172.262 136.946 174.968C136.894 191.432 143.688 221.668 157.051 232.22C157.051 234.925 156.646 245.988 155.394 247.85L154.522 247.058C148.315 237.391 143.134 229.41 138.854 218.557C131.198 199.148 128.445 176.879 137.106 157.296Z"/><path fill="#FEFEFE" fill-opacity="0.14901961" d="M400.895 56.8755C404.925 55.2501 428.321 53.3053 433.17 53.5859C438.376 55.1982 442.24 53.4656 447.42 53.9658C451.012 54.3126 453.966 57.2794 457.377 57.4589L457.761 57.7563L455.569 58.4581L455.468 58.8497L457.535 59.9898L457.726 60.8549L456.402 61.7224L456.808 62.4606C453.854 63.1293 436.871 61.4099 432.492 61.6285C424.41 62.0321 418.921 63.6762 411.107 65.3982C406.757 66.357 401.662 66.8402 397.12 67.9133C395.909 65.0972 395.602 62.7811 396.479 59.6711C396.926 58.0814 399.153 57.951 400.954 57.4852L400.895 56.8755Z"/><path fill="#B3D9DE" d="M429.907 714.806C431.254 715.802 432.016 718.003 432.834 719.682C426.209 727.615 420.559 736.254 414.56 744.632C405.369 757.466 396.99 769.719 388.773 783.18L387.845 783.265C385.903 782.563 385.583 782.472 383.887 781.351C383.9 775.005 423.19 722.168 429.907 714.806Z"/><path fill="#C98382" d="M525.098 767.01C535.322 766.885 535.786 776.665 528.056 781.413C525.092 781.264 522.548 780.685 520.861 777.982C519.856 776.348 519.595 774.363 520.144 772.526C521.031 769.481 522.482 768.417 525.098 767.01Z"/><path fill="#B3D9DE" fill-opacity="0.22745098" d="M618.631 635.576L621.057 637.763C622.539 644.253 647.439 662.483 644.404 667.445C643.028 665.554 637.747 660.436 635.913 658.595C629.926 652.577 623.903 646.596 617.843 640.652C619.111 637.809 619.245 641.057 618.631 635.576Z"/><path fill="#B3D9DE" fill-opacity="0.89411765" d="M621.057 637.763C628.39 643.524 646.275 663.035 652.228 670.955C651.819 672.911 651.989 673.962 649.869 674.089C647.668 672.972 645.503 669.612 644.404 667.445C647.439 662.483 622.539 644.253 621.057 637.763Z"/><path fill="#FEFEFE" fill-opacity="0.98823529" d="M580.517 686.963C586.476 691.048 595.37 699.135 597.92 705.89L595.632 707.185C592.703 700.331 585.14 694.462 580.517 686.963Z"/><path fill="#FEFEFE" d="M537.481 719.569L544.986 723.165L545.094 723.624L543.613 726.7L537.481 719.569Z"/><path fill="#FEFEFE" d="M498.38 216.838C502.203 217.824 506.037 218.77 509.88 219.673C508.1 220.34 507.389 220.396 506.382 221.993L498.38 216.838Z"/><path fill="#FEFEFE" fill-opacity="0.047058824" d="M166.611 225.125L168.441 225.56C167.66 227.88 166.632 232.176 164.63 233.276L164.18 232.514C164.887 229.91 165.709 227.654 166.611 225.125Z"/><path fill="#B3D9DE" fill-opacity="0.92156863" d="M627.465 742.153C628.66 740.583 628.25 740.559 629.729 740.286C631.137 741.73 631.667 744.349 630.289 745.916L629.322 745.983L627.465 742.153Z"/><path fill="#FEFEFE" fill-opacity="0.10196079" d="M116.806 463.607L118.136 463.772C119.423 465.452 119.384 465.581 119.646 467.754C119.52 468.076 119.299 468.739 119.116 468.983C118.143 467.339 117.494 465.404 116.806 463.607Z"/><path fill="#E2AAA3" d="M208.462 707.156C218.857 706.567 227.812 714.282 235.724 720.105C244.426 714.686 250.143 708.063 261.243 707.397C267.696 706.996 274.029 709.278 278.744 713.703C286.838 721.19 287.293 734.198 282.279 743.299C276.487 753.811 266.108 764.083 257.768 772.608C253.664 776.749 240.905 790.037 235.889 791.147C235.003 790.943 233.9 790.535 233.141 789.868C218.064 776.611 201.467 760.421 190.258 743.746C188.856 741.394 188.11 738.592 187.669 735.93C185.052 720.144 192.31 709.381 208.462 707.156ZM236.596 780.981C244.103 775.648 254.146 765.035 260.252 758.1C266.239 751.494 278.145 739.569 277.752 730.238C277.335 720.334 270.161 715.709 260.564 715.538C250.101 715.352 238.948 734.449 232.992 729.318C223.729 721.338 219.392 714.651 206.049 715.59C196.189 719.527 192.268 730.53 197.251 739.187C204.988 752.627 224.016 772.271 236.596 780.981Z"/><path fill="#E2AAA3" d="M814.366 790.605C815.414 790.513 816.464 790.442 817.515 790.393C830.591 789.827 841.601 798.405 850.71 806.706C858.613 798.114 865.33 792.358 877.572 790.863C883.422 790.24 891.184 791.562 895.528 795.779C912.967 812.709 891.301 836.114 880.197 847.943C870.393 857.995 863.574 865 852.418 873.446C839.555 862.797 829.177 854.378 818.401 841.385C807.134 827.8 785.872 798.821 814.366 790.605Z"/><path fill="#E2AAA3" d="M145.326 829.478C148.899 829.392 150.453 830.193 152.668 833.016C157.478 839.147 160.92 847.114 164.678 853.916C170.55 856.227 188.8 860.834 191.447 865.003C192.186 870.109 179.55 882.081 176.301 887.539C176.243 896.739 177.437 905.037 177.534 913.997C176.424 915.256 174.714 917.483 173.195 917.672C169.537 918.127 152.288 910.011 149.622 908.236C117.676 920.554 117.972 926.833 119.575 888.423C93.1398 861.824 97.8385 866.141 128.941 855.108C132.337 849.862 141.315 832.071 145.326 829.478ZM112.372 868.785C116.603 875.205 123.881 879.997 127.503 885.356C127.857 892.739 127.409 900.997 127.382 908.495C134.076 905.855 140.745 903.151 147.388 900.383C151.154 899.654 163.76 905.687 168.477 907.522C168.418 900.049 167.641 892.679 167.579 885.483C172.07 878.566 176.533 874.324 181.177 868.211C172.561 865.225 160.327 864.264 156.335 855.893C154.395 851.825 151.145 842.853 147.77 840.256C143.372 846.323 137.865 857.982 134.206 862.295C127.242 864.999 119.876 865.914 112.372 868.785Z"/><path fill="#E2AAA3" d="M916.14 532.438C923.836 532.411 929.606 547.25 934.178 553.252C941.074 562.307 956.189 558.881 960.663 567.782C963.109 572.648 949.142 584.866 946.103 590.285C945.767 598.115 948.02 607.548 947.649 614.375C947.084 624.758 923.65 612.254 918.832 610.824L918.056 610.599C900.176 617.715 884.151 630.994 888.771 599.881C889.192 597.046 889.37 593.447 889.65 590.512C884.993 585.569 872.111 573.603 873.279 566.837C876.649 561.173 890.25 561.632 896.876 556.864C906.417 549.998 906.855 538.116 916.14 532.438ZM905.298 563.006C899.656 566.087 889.177 568.452 882.742 570.142C886.418 576.559 893.695 582.004 898.546 588.162C897.886 595.696 896.607 604.414 896.492 611.772C904.272 608.619 910.749 604.365 917.77 601.395C921.447 601.654 934.227 608.214 939.134 610.084C938.548 602.78 937.421 595.478 937.236 588.23C939.821 583.726 949.299 572.4 953.206 570.029C943.094 567.836 931.484 566.955 926.03 558.01C924.034 554.736 919.039 544.563 917.205 542.82C912.794 549.188 908.875 558.129 905.298 563.006Z"/><path fill="#B3D9DE" fill-opacity="0.98823529" d="M535.71 742.012C538.257 742.458 540.69 742.825 543.183 743.524C566.486 803.217 578.746 870.579 588.578 933.859C590.954 949.151 592.398 964.392 594.189 979.717C594.976 986.449 596.127 999.012 597.553 1005.38C595.204 1005.64 592.858 1005.92 590.514 1006.22C590.501 998.524 588.679 983.778 587.823 975.781C585.033 950.759 581.543 925.821 577.358 900.994C575.498 889.402 573.059 877.623 570.46 866.16C561.067 824.721 551.283 781.58 535.71 742.012Z"/><path fill="#E2AAA3" fill-opacity="0.97254902" d="M800.56 658.377C808.167 656.412 815.929 660.98 817.905 668.584C819.881 676.189 815.324 683.958 807.721 685.944C800.104 687.933 792.318 683.366 790.339 675.746C788.359 668.126 792.938 660.346 800.56 658.377Z"/><path fill="#E2AAA3" fill-opacity="0.97254902" d="M138.172 660.456C145.771 660.557 151.885 666.735 151.905 674.335C151.925 681.935 145.845 688.146 138.246 688.287C133.222 688.38 128.538 685.758 125.991 681.427C123.444 677.095 123.43 671.727 125.954 667.382C128.477 663.037 133.147 660.39 138.172 660.456Z"/></svg>