<?xml version="1.0" encoding="utf-8" ?><svg xmlns="http://www.w3.org/2000/svg" xmlns:xlink="http://www.w3.org/1999/xlink" width="1024" height="1024" viewBox="0 0 1024 1024"><defs><linearGradient id="gradient_0" gradientUnits="userSpaceOnUse" x1="148.12001" y1="737.99512" x2="986.75104" y2="388.25882"><stop offset="0" stop-color="#070000"/><stop offset="1" stop-color="#2E2221"/></linearGradient></defs><path fill="url(#gradient_0)" d="M441.254 187.599C439.792 184.748 438.152 181.634 437.302 178.512C424.348 130.935 474.654 97.4896 513.749 85.7574C562.778 71.0443 613.963 74.9297 659.116 99.7377C664.569 99.1956 671.792 98.2086 677.074 98.3065C730.142 99.2909 793.954 136.622 834.474 168.101C848.411 179.15 861.715 190.975 874.322 203.52C916.915 245.822 959.714 304.46 975.237 363.145C981.329 386.172 983.774 410.012 982.483 433.797C978.196 502.495 938.661 548.557 901.342 602.984C837.265 696.434 807.004 792.943 832.218 905.997C833.413 911.501 834.77 916.969 836.287 922.394C837.731 927.525 839.322 932.668 840.763 937.744C841.668 940.93 844.774 948.024 841.399 950.274C838.39 952.28 836.41 948.497 835.145 946.494C822.315 907.935 816.727 873.207 815.431 832.72C815.629 829.793 815.511 826.056 815.499 823.081C815.362 790.319 821.126 759.072 829.756 727.634C838.985 698.694 849.375 675.396 863.458 648.705L862.434 647.572C858.914 648.236 858.14 653.598 855.192 654.811C850.488 660.909 833.024 700.871 830.121 708.439C814.886 750.799 806.844 786.189 808.614 831.544C808.786 835.95 809.407 852.897 810.281 856.618C812.636 884.586 819.229 914.268 826.238 941.51C826.732 943.434 828.767 945.868 830.229 947.246L830.632 948.638C819.386 953.729 797.079 958.581 784.727 961.859C779.292 963.301 771.138 963.884 765.944 965.931C764.014 969.788 761.111 969.684 757.838 967.287C747.626 968.586 736.883 971.088 726.486 972.982C703.896 977.098 680.593 981.332 657.654 982.515C655.932 982.604 655.224 980.175 654.11 981.364C653.914 981.648 652.377 982.292 651.882 982.333C648.814 985.907 649.214 985.895 644.558 985.39C637.871 984.662 625.256 986.547 617.971 987.164C565.869 991.58 513.966 990.506 461.929 985.899C456.331 985.404 437.304 982.072 433.409 983.097C432.074 984.323 431.267 984.835 429.504 984.815C427.416 983.767 428.292 984.482 426.89 982.454C422.016 981.518 390.498 976.907 387.082 977.637C385.677 978.951 385.526 979.218 383.631 979.778C379.499 979.099 380.313 973.605 380.215 970.1C373.537 967.984 367.404 966.524 360.755 963.983C333.37 953.517 309.136 936.511 292.556 912.008C270.306 879.124 264.591 834.633 268.746 795.772C269.377 789.866 271.012 782.26 272.148 776.359C258.278 798.305 249.732 815.404 249.184 842.526C248.552 873.76 260.888 904.079 279.916 928.477C285.89 936.138 294.633 944.447 301.543 951.546C282.203 944.884 263.983 935.332 247.504 923.214C217.87 901.301 194.023 864.658 189.368 828.008C175.245 716.825 276.651 646.868 344.345 576.463C354.842 565.545 363.81 553.18 372.654 541.143C369.483 538.273 356.93 530.054 352.924 527.233C340.739 518.819 329.234 509.461 318.516 499.243C290.655 472.36 273.279 441.874 272.439 402.096C271.398 352.767 295.694 298.647 334.378 267.835C346.168 257.909 360.83 253.044 373.541 244.789C383.829 236.801 396.339 228.501 406.133 220.071C417.095 210.636 431.324 197.851 441.254 187.599ZM916.73 273.029C920.69 275.996 922.606 280.728 925.226 285.037C927.158 288.496 930.307 292.856 932.592 296.217C935.118 300.066 943.104 315.297 944.694 316.937L944.936 316.161C943.829 313.2 943.606 312.942 944.783 310.123C942.6 304.31 923.772 274.6 919.663 269.67L919.209 268.989C915.645 263.163 907.523 253.017 903.237 247.595C868.662 204.357 826.227 168.043 778.166 140.565C768.81 136.075 760.775 132.828 751.872 127.116C749.054 125.308 739.182 121.63 735.663 120.2C733.262 118.9 730.702 117.92 728.047 117.283L725.417 116.397C719.349 113.2 702.929 109.253 695.975 108.432C695.699 108.315 693.931 107.936 693.521 107.841C691.445 107.94 686.953 107.968 685.249 108.593L685.17 108.721L685.322 110.69C700.169 112.85 711.032 115.822 725.088 120.986C729.489 122.603 737.989 126.046 742.114 127.238C746.968 127.634 768.775 138.423 773.024 141.641C775.652 143.322 778.27 145.033 780.908 146.696C833.764 180.01 877.821 224.402 916.73 273.029ZM867.125 633.879C868.856 633.741 869.001 633.525 870.323 632.538L871.047 632.775L871.637 634.293C876.489 626.479 881.059 618.796 886.062 611.038C891.345 602.845 897.233 594.48 902.278 586.205C898.957 587.123 900.061 590.194 896.544 591.018C895.905 589.171 898.555 587.542 898.222 583.602C891.955 593.765 886.197 603.639 879.649 613.728C876.649 618.352 869.467 629.207 867.125 633.879ZM721.771 116.383L718.904 116.913C717.244 115.927 713.058 115.292 709.717 113.598C713.375 113.072 717.622 115.493 721.202 116.265L721.771 116.383ZM241.708 907.75C242.764 908.77 244.388 910.241 245.325 911.303C246.908 912.845 247.972 913.848 249.706 915.209L252.079 914.342C250.589 912.761 249.648 911.635 247.832 910.377L243.985 906.181C224.128 882.517 212.444 863.77 206.843 833.514C193.546 761.682 240.878 700.634 286.342 651.115C289.681 647.479 297.845 636.406 301.591 633.801C313.767 625.336 323.2 615.135 333.682 604.708C340.617 597.412 353.893 585.766 359.093 577.489L359.364 577.51C364.937 574.138 378.53 553.448 381.777 546.651C380.377 545.512 380.314 545.045 378.835 544.909C377.871 546.219 375.296 549.898 374.828 551.158C372.163 558.332 351.789 577.949 350.487 582.123C339.53 593.763 327.707 604.287 316.582 615.695C310.357 622.077 304.088 628.877 297.924 635.418C289.83 644.008 279.392 651.15 271.608 659.141C232.407 699.385 194.518 751.019 197.066 809.988C198.631 850.659 212.792 879.988 241.708 907.75ZM440.24 236.187C435.917 240.103 431.982 244.043 427.286 247.516C423.518 250.005 421.488 251.272 417.457 253.231C409.986 255.824 403.227 257.482 396.069 252.812L394.813 251.872C395.743 247.931 400.158 239.585 399.59 236.56C397.573 235.942 390.757 242.872 388.677 244.473C384.342 247.808 380.105 250.852 375.609 253.947C378.202 254.861 380.046 255.268 382.019 257.228C382.759 257.588 383.96 258.224 384.683 258.5L384.506 259.049L386.23 259.523C394.019 263.894 399.558 262.282 407.825 266.698C409.295 267.805 410.722 268.981 412.157 270.135C417.589 268.278 421.312 266.709 426.308 263.951C428.874 262.352 431.621 260.855 433.736 258.742L433.521 258.524C433.796 257.296 435.717 256.278 436.892 255.22C439.002 253.323 438.13 252.962 438.339 249.739C440.282 245.998 442.24 248.955 443.307 243.222L443.988 242.805L445.881 244.087C447.415 242.159 447.748 241.764 448.838 239.598C455.795 231.77 474.379 202.643 469.73 190.001C468.071 185.49 454.614 192.15 451.358 194.628L451.274 195.283C466.766 202.322 446.355 228.369 440.24 236.187ZM446.208 202.642C444.076 203.251 441.759 203.841 439.88 204.98C431.771 209.893 426.749 220.811 439.761 222.577C442.376 222.016 444.687 221.608 447.198 220.661C450.211 217.375 456.657 208.396 451.468 204.104C450.566 203.359 447.458 202.832 446.208 202.642ZM458.654 128.361C456.961 130.262 455.423 131.812 454.136 134.013C444.992 145.635 442.501 158.581 444.398 173.031C444.677 175.153 445.113 180.81 446.073 182.319C447.004 181.723 446.713 182.053 447.111 181.501C447.1 181.334 447.09 181.167 447.079 181.001C447.758 176.958 447.275 173.086 446.958 168.975L446.837 169.436C446.781 168.834 446.749 168.23 446.741 167.625C446.684 162.15 449.94 151.926 453.744 148.107C454.95 146.352 458.504 139.502 459.986 136.998C469.857 123.306 481.232 115.154 495.517 106.875C497.839 105.865 500.604 104.677 502.851 103.508C515.669 96.8347 528.322 94.5148 542.106 91.1627C545.288 90.8881 549.073 90.2863 552.38 89.9334C565.462 88.5335 575.12 88.69 588.146 89.6992C590.778 90.1918 599.63 91.5307 602.038 91.5121C613.523 91.2263 610.164 93.158 619.419 95.5729C627.413 98.1825 635.515 100.832 643.333 103.932L646.009 101.607C640.022 98.8705 631.243 95.6414 624.983 93.8446C620.079 92.0546 604.473 88.6767 599.204 87.7211C587.723 86.004 575.304 85.0678 563.746 85.8259C562.171 85.914 558.772 85.9741 557.433 86.3871C551.47 86.6849 544.472 87.4147 538.622 88.6841C530.488 90.0163 517.021 93.2954 509.184 96.4291L504.47 98.2434C499.307 99.9201 493.675 102.874 488.86 105.398C478.747 111.159 466.269 119.504 458.654 128.361ZM287.25 761.846C288.204 759.395 287.274 755.957 289.161 753.325C289.843 752.374 290.614 750.196 291.078 749.042C294.924 736.45 298.97 726.13 304.018 714.047L302.722 713.513C298.468 716.829 293.759 736.27 290.766 736.864C288.33 741.413 284.582 754.243 283.242 759.488L283.209 760.236C276.889 785.119 273.462 813.307 276.604 838.896C276.967 846.473 278.882 855.835 280.575 863.171C282.226 870.424 284.812 878.826 287.893 885.666C291.66 894.133 303.922 917.142 311.048 921.642C316.601 927.623 320.4 930.89 326.837 935.942C328.36 937.482 329.775 938.351 331.54 939.562L333.84 939.219C332.098 937.705 330.868 936.456 328.799 935.42C324.023 930.999 319.51 926.302 315.282 921.354C312.656 917.95 309.847 915.612 307.136 912.472C305.618 910.713 304.429 906.956 302.774 904.62C301.457 901.627 297.688 895.46 295.947 892.016C289.855 879.97 286.146 870.453 283.274 857.203C283.056 855.989 282.202 850.898 281.778 850.139C278.192 843.719 278.675 843.483 280.062 836.136C278.201 806.33 280.002 791.004 287.25 761.846Z"/><path fill="#F4E2CA" fill-opacity="0.98823529" d="M898.222 583.602C898.555 587.542 895.905 589.171 896.544 591.018C900.061 590.194 898.957 587.123 902.278 586.205C897.233 594.48 891.345 602.845 886.062 611.038C881.059 618.796 876.489 626.479 871.637 634.293L871.047 632.775L870.323 632.538C869.001 633.525 868.856 633.741 867.125 633.879C869.467 629.207 876.649 618.352 879.649 613.728C886.197 603.639 891.955 593.765 898.222 583.602Z"/><path fill="#CFC1BA" fill-opacity="0.98039216" d="M695.975 108.432C702.929 109.253 719.349 113.2 725.417 116.397L721.771 116.383L721.202 116.265C717.622 115.493 713.375 113.072 709.717 113.598C713.058 115.292 717.244 115.927 718.904 116.913C721.292 117.915 725.718 120.264 728.148 119.22C728.304 118.055 728.323 118.47 728.047 117.283C730.702 117.92 733.262 118.9 735.663 120.2C733.469 120.244 732.94 119.897 731.297 120.833C733.331 123.556 739.066 123.258 742.114 127.238C737.989 126.046 729.489 122.603 725.088 120.986C711.032 115.822 700.169 112.85 685.322 110.69L685.17 108.721C688.152 110.394 696.739 111.615 699.894 110.722C698.72 110.145 697.682 109.665 696.612 108.898L695.975 108.432Z"/><path fill="#CFC1BA" fill-opacity="0.062745102" d="M735.663 120.2C739.182 121.63 749.054 125.308 751.872 127.116C760.775 132.828 768.81 136.075 778.166 140.565C775.86 140.442 774.599 139.892 773.024 141.641C768.775 138.423 746.968 127.634 742.114 127.238C739.066 123.258 733.331 123.556 731.297 120.833C732.94 119.897 733.469 120.244 735.663 120.2Z"/><path fill="#CFBFBA" fill-opacity="0.98039216" d="M919.663 269.67C923.772 274.6 942.6 304.31 944.783 310.123C943.606 312.942 943.829 313.2 944.936 316.161L944.694 316.937C943.104 315.297 935.118 300.066 932.592 296.217C933.575 296.28 933.028 296.279 934.233 296.169C934.747 293.233 928.939 286.549 927.464 283.464C925.147 278.827 919.91 274.835 919.663 269.67Z"/><path fill="#CFC1BA" fill-opacity="0.23921569" d="M919.209 268.989L919.663 269.67C919.91 274.835 925.147 278.827 927.464 283.464C926.487 284.515 926.56 284.616 925.226 285.037C922.606 280.728 920.69 275.996 916.73 273.029L918.618 272.321C919.07 270.925 919.06 270.435 919.209 268.989Z"/><path fill="#CFC1BA" fill-opacity="0.56078434" d="M927.464 283.464C928.939 286.549 934.747 293.233 934.233 296.169C933.028 296.279 933.575 296.28 932.592 296.217C930.307 292.856 927.158 288.496 925.226 285.037C926.56 284.616 926.487 284.515 927.464 283.464Z"/><path fill="#CFBFBA" fill-opacity="0.33725491" d="M693.521 107.841C693.931 107.936 695.699 108.315 695.975 108.432L696.612 108.898C697.682 109.665 698.72 110.145 699.894 110.722C696.739 111.615 688.152 110.394 685.17 108.721L685.249 108.593C686.953 107.968 691.445 107.94 693.521 107.841Z"/><path fill="#CFC1BA" fill-opacity="0.2" d="M721.771 116.383L725.417 116.397L728.047 117.283C728.323 118.47 728.304 118.055 728.148 119.22C725.718 120.264 721.292 117.915 718.904 116.913L721.771 116.383Z"/><path fill="#302726" d="M739.892 243.117C738.971 242.614 739.001 242.568 738.246 241.829C713.962 218.083 694.076 193.61 676.737 164.478C672.342 157.093 662.896 143.76 663.42 135.514C663.785 129.767 663.016 114.713 667.365 110.529C669.421 108.551 682.001 110.359 685.322 110.69C700.169 112.85 711.032 115.822 725.088 120.986C729.489 122.603 737.989 126.046 742.114 127.238C746.968 127.634 768.775 138.423 773.024 141.641C775.652 143.322 778.27 145.033 780.908 146.696C833.764 180.01 877.821 224.402 916.73 273.029C920.69 275.996 922.606 280.728 925.226 285.037C927.158 288.496 930.307 292.856 932.592 296.217C935.118 300.066 943.104 315.297 944.694 316.937C949.122 326.935 953.869 336.839 957.498 346.996C973.375 391.428 976.988 433.095 959.21 477.575C947.766 506.21 935.578 526.078 918.735 551.629C913.711 559.182 908.743 566.772 903.83 574.398C902.832 575.957 898.754 582.263 898.222 583.602C891.955 593.765 886.197 603.639 879.649 613.728C876.649 618.352 869.467 629.207 867.125 633.879C868.856 633.741 869.001 633.525 870.323 632.538L871.047 632.775L871.637 634.293L863.458 648.705L862.434 647.572C858.914 648.236 858.14 653.598 855.192 654.811C850.488 660.909 833.024 700.871 830.121 708.439C814.886 750.799 806.844 786.189 808.614 831.544C808.786 835.95 809.407 852.897 810.281 856.618C812.636 884.586 819.229 914.268 826.238 941.51C826.732 943.434 828.767 945.868 830.229 947.246L830.632 948.638C819.386 953.729 797.079 958.581 784.727 961.859C779.292 963.301 771.138 963.884 765.944 965.931C764.646 962.258 762.209 939.814 761.163 933.897C758.263 917.481 755.363 900.88 751.513 884.625C734.412 810.461 706.862 739.102 669.687 672.687C656.828 649.214 644.39 617.971 615.439 609.932C607.561 607.745 600.229 613.329 593.99 617.528C590.288 607.212 589.13 599.855 588.965 589.016C596.389 586.472 603.703 583.617 610.886 580.457C618.042 588.568 627.843 593.655 638.211 596.99C683.06 611.415 741.78 593.688 767.584 553.327C769.657 550.085 772.502 546.249 773.68 542.585C777.263 534.248 777.828 531.198 779.709 522.356C829.952 481.504 849.605 436.625 843.743 371.71C843.052 364.056 842.025 356.436 840.664 348.872C839.907 344.496 838.145 336.727 838.186 332.559L836.569 331.607L835.407 332.483L834.246 330.101C829.761 327.778 821.273 321.979 816.602 318.99C792.169 303.378 768.918 285.99 747.036 266.967C746.159 260.496 744.817 253.921 744.176 247.473C744.305 246.666 741.079 232.085 740.635 230.266C740.436 234.354 741.421 238.928 740.977 242.381L739.892 243.117Z"/><path fill="#F4E2CA" d="M744.176 247.473C784.698 284.135 830.69 314.251 880.494 336.736C901.904 346.519 924.466 355.547 946.129 364.832C951.84 367.28 957.942 369.156 963.608 371.577C965.535 378.857 967.401 385.797 968.374 393.3C956.345 386.096 935.15 378.007 921.765 372.341C903.414 364.623 885.314 356.322 867.491 347.452C857.518 342.587 847.786 338.164 838.186 332.559L836.569 331.607L835.407 332.483L834.246 330.101C829.761 327.778 821.273 321.979 816.602 318.99C792.169 303.378 768.918 285.99 747.036 266.967C746.159 260.496 744.817 253.921 744.176 247.473Z"/><path fill="#0D0504" d="M831.184 315.486C834.122 320.859 835.057 325.711 836.569 331.607L835.407 332.483L834.246 330.101C833.362 324.537 832.545 320.89 831.184 315.486Z"/><path fill="#CFBFBA" d="M867.125 633.879C868.856 633.741 869.001 633.525 870.323 632.538L871.047 632.775L871.637 634.293L863.458 648.705L862.434 647.572C858.914 648.236 858.14 653.598 855.192 654.811C856.742 650.905 864.589 637.381 867.125 633.879Z"/><path fill="#F4F2E0" d="M673.106 695.937C675.799 700.535 678.89 707.199 681.295 712.085C686.831 723.081 692.016 734.25 696.84 745.576C717.593 793.119 733.73 842.546 745.031 893.175C748.17 908.039 750.98 922.97 753.458 937.959C754.989 947.677 756.042 957.651 757.838 967.287C747.626 968.586 736.883 971.088 726.486 972.982C703.896 977.098 680.593 981.332 657.654 982.515C655.932 982.604 655.224 980.175 654.11 981.364C653.914 981.648 652.377 982.292 651.882 982.333C648.814 985.907 649.214 985.895 644.558 985.39C637.871 984.662 625.256 986.547 617.971 987.164C565.869 991.58 513.966 990.506 461.929 985.899C456.331 985.404 437.304 982.072 433.409 983.097C436.901 965.892 439.118 949.549 443.245 931.94C451.334 897.426 462.393 863.929 478.965 832.464C483.832 823.221 491.089 812.47 496.834 803.859C504.622 804.505 513.196 806.699 520.407 808.812C577.614 825.568 620.934 878.331 639.188 933.52C640.706 938.111 644.485 953.755 646.999 956.644L647.9 956.702L648.401 955.864C648.49 926.887 624.091 883.243 605.303 860.996C583.973 835.738 557.296 813.883 524.683 805.009C515.549 802.523 507.798 801.818 498.564 800.909C502.374 796.209 505.433 792.903 507.777 787.277C523.584 780.54 539.269 772.974 555.222 766.669C575.353 758.712 595.675 751.428 615.488 742.658C639.559 732.004 661.604 720.858 673.106 695.937Z"/><path fill="#0D0504" d="M644.558 985.39C645.099 974.906 672.007 924.557 680.186 916.708C681.807 916.58 681.059 916.386 682.449 917.493C682.717 918.92 682.491 919.48 681.835 920.87C674.157 937.129 664.89 952.607 657.534 969.026C655.585 973.374 653.226 977.76 651.882 982.333C648.814 985.907 649.214 985.895 644.558 985.39Z"/><path fill="#F4F2E0" d="M397.134 839.738C432.441 833.168 450.626 819.246 480.741 801.347C486.568 797.883 499.261 790.261 505.166 788.114L504.68 788.676C497.743 796.615 491.145 800.744 484.406 810.295C453.582 853.987 431.05 929.797 426.89 982.454C422.016 981.518 390.498 976.907 387.082 977.637C387.789 973.023 387.762 965.718 387.952 960.802C388.451 947.91 388.365 934.919 388.97 922.03C390.262 894.476 393.841 867.13 397.134 839.738Z"/><path fill="#F4E2CA" d="M663.301 106.36C672.758 105.038 684.109 106.463 693.521 107.841C691.445 107.94 686.953 107.968 685.249 108.593L685.17 108.721L685.322 110.69C682.001 110.359 669.421 108.551 667.365 110.529C663.016 114.713 663.785 129.767 663.42 135.514C662.896 143.76 672.342 157.093 676.737 164.478C694.076 193.61 713.962 218.083 738.246 241.829C739.001 242.568 738.971 242.614 739.892 243.117C742.004 245.333 743.857 260.802 744.919 265.544C727.452 250.335 712.18 234.244 698.568 215.528C686.129 198.424 671.559 180.376 664.021 160.522C664.559 220.201 689.629 286.155 719.814 336.758C728.128 350.696 737.707 364.926 746.783 378.407L746.441 378.391C740.974 372.74 732.682 361.145 728.033 354.568C696.417 309.587 673.97 258.82 661.973 205.165C656.648 180.344 649.312 128.008 663.301 106.36Z"/><path fill="#CFBFBA" d="M944.783 310.123C978.992 369.91 986.604 445.679 953.312 507.783C940.238 532.172 924.81 553.94 909.005 576.562C907.685 578.451 903.437 585.279 902.278 586.205C898.957 587.123 900.061 590.194 896.544 591.018C895.905 589.171 898.555 587.542 898.222 583.602C898.754 582.263 902.832 575.957 903.83 574.398C908.743 566.772 913.711 559.182 918.735 551.629C935.578 526.078 947.766 506.21 959.21 477.575C976.988 433.095 973.375 391.428 957.498 346.996C953.869 336.839 949.122 326.935 944.694 316.937L944.936 316.161C943.829 313.2 943.606 312.942 944.783 310.123Z"/><path fill="#0D0504" d="M836.569 331.607L838.186 332.559C838.145 336.727 839.907 344.496 840.664 348.872C842.025 356.436 843.052 364.056 843.743 371.71C849.605 436.625 829.952 481.504 779.709 522.356C777.828 531.198 777.263 534.248 773.68 542.585C773.304 540.744 779.114 526.655 779.099 522.243C779.078 516.056 778.715 511.257 777.196 505.039C776.665 502.863 775.006 499.541 775.123 498.075C778.662 501.717 779.114 515.251 779.673 519.982L780.158 520.157C833.835 474.754 848.543 418.116 837.976 349.779C837.14 344.367 835.962 338.473 835.459 333.082L835.407 332.483L836.569 331.607Z"/><path fill="#F4E2CA" d="M532.432 133.499C569.465 122.383 611.949 126.25 647.542 140.325C647.429 154.917 647.063 166.382 649.049 180.952C630.131 171.324 614.785 167.385 593.426 169.676C588.64 170.189 581.761 170.218 577.423 171.929L577.301 172.682C581.264 174.137 585.539 174.835 589.283 176.319C612.408 185.338 632.827 199.911 648.164 219.508C651.639 223.949 660.401 234.722 662.074 239.559C668.424 257.922 675.037 275.804 683.2 293.529C685.684 298.922 689.23 304.907 690.949 310.602C692.158 317.813 691.865 325.484 692.384 332.747C695.24 372.686 687.1 412.236 673.207 449.479C664.064 473.991 653.272 496.407 635.422 515.713C632.773 518.577 621.293 527.919 620.817 530.465L621.379 531.077C625.252 530.636 630.092 526.941 633.344 524.581C662.983 503.077 689.339 476.849 728.709 477.696C756.716 478.297 776.041 498.467 769.63 526.743C756.371 585.221 664.596 612.826 618.108 577.933C615.96 576.341 616.437 574.765 616.61 572.339L616.072 571.825C612.185 571.986 606.213 574.6 602.5 576.132C590.163 581.224 577.3 584.284 564.376 587.476C561.34 588.226 556.705 588.481 554.996 591.278C555.672 596.562 578.24 591.08 581.64 590.445C582.044 602.494 583.486 609.204 587.912 620.547C575.728 627.996 566.468 634.927 554.952 643.444C536.338 657.157 518.347 671.695 501.031 687.013C497.479 666.944 479.064 599.667 466.118 577.281C465.863 576.84 451.455 571.096 448.772 570.001C440.85 566.733 433.041 563.201 425.356 559.408C386.484 540.257 332.531 507.445 305.969 472.702C297.564 461.48 291.037 448.969 286.642 435.657C267.983 378.575 298.427 299.9 349.197 268.283C357.569 263.07 366.994 258.896 375.609 253.947C378.202 254.861 380.046 255.268 382.019 257.228C382.759 257.588 383.96 258.224 384.683 258.5L384.506 259.049L386.23 259.523C394.019 263.894 399.558 262.282 407.825 266.698C409.295 267.805 410.722 268.981 412.157 270.135C417.589 268.278 421.312 266.709 426.308 263.951C428.874 262.352 431.621 260.855 433.736 258.742L433.521 258.524C433.796 257.296 435.717 256.278 436.892 255.22C439.002 253.323 438.13 252.962 438.339 249.739C440.282 245.998 442.24 248.955 443.307 243.222L443.988 242.805L445.881 244.087C443.697 247.056 441.134 250.394 439.082 253.415C447.836 248.741 453.154 243.483 459.573 235.957C468.583 225.391 475.779 214.806 479.801 201.327C482.169 193.39 484.717 179.222 473.663 176.65C465.325 174.859 456.251 180.218 449.156 184.108C467.023 167.716 477.364 159.54 499.031 147.865C518.749 149.362 525.624 150.904 540.587 165.034C540.926 152.903 540.528 143.406 532.432 133.499Z"/><path fill="#0D0504" d="M433.736 258.742L435.172 258.771L435.468 259.429C433.13 265.267 422.26 269.685 417.421 272.723C407.545 278.923 402.76 264.51 395.394 268.532C384.164 274.663 384.986 289.898 394.765 296.713L396.288 297.773L396.465 298.368C385.754 303.689 372.815 281.349 390.674 265.654C389.122 264.058 387.597 262.464 385.983 260.928L384.506 259.049L386.23 259.523C394.019 263.894 399.558 262.282 407.825 266.698C409.295 267.805 410.722 268.981 412.157 270.135C417.589 268.278 421.312 266.709 426.308 263.951C428.874 262.352 431.621 260.855 433.736 258.742Z"/><path fill="#E08E7F" d="M382.019 257.228C382.759 257.588 383.96 258.224 384.683 258.5L384.506 259.049L385.983 260.928C377.462 263.713 369.061 271.164 361.674 276.281C359.516 277.776 356.305 280.754 353.806 280.366C352.373 276.886 359.164 270.378 361.792 268.166C367.895 263.03 374.7 260.136 382.019 257.228Z"/><path fill="#0D0504" d="M356.082 313.697C358.963 314.718 365.766 321.249 368.67 323.674C374.855 328.738 381.163 333.65 387.588 338.406C405.439 351.732 425.725 363.462 444.89 374.976C450.878 378.573 461.005 382.775 466.752 387.173C467.363 387.695 467.613 388.814 467.324 389.529C458.668 410.895 440.319 427.505 422.319 440.55C406.457 451.72 386.302 460.261 366.423 458.578C303.057 453.215 337.625 363.16 349.328 327.659C350.453 324.246 353.737 315.75 356.082 313.697Z"/><path fill="#E08E7F" d="M401.869 393.721C416.229 393.044 422.832 394.329 435.522 400.865C440.785 403.576 444.234 404.914 449.79 408.358C432.145 429.217 410.513 446.056 383.475 452.532C360.646 456.897 342.753 450.974 336.036 427.292C350.948 402.397 374.095 395.06 401.869 393.721Z"/><path fill="#FEFDFC" d="M363.09 325.176C364.608 326.074 374.024 334.215 376.125 335.924C383.778 342.057 391.653 347.906 399.737 353.458C412.327 362.013 426.78 370.376 439.951 378.117C446.952 382.232 454.547 385.54 461.67 389.862C459.786 393.309 457.264 397.255 455.207 400.667C454.421 401.839 453.411 403.173 452.574 404.335C441.152 396.936 425.809 391.436 413.401 385.448C399.489 378.735 386.201 370.998 373.478 362.233C370.112 359.914 362.62 354.801 361.078 351.186C357.857 343.633 360.519 332.453 363.09 325.176Z"/><path fill="#753C3B" d="M357.78 322.359C358.887 328.846 350.606 338.886 355.051 350.455C360.328 364.188 396.584 383.251 410.694 389.467C391.677 389.269 383.022 388.97 364.761 396.497C350.634 402.933 343.193 410.038 334.642 422.692C333.303 394.765 346.668 347.378 357.78 322.359Z"/><path fill="#0D0504" d="M481.878 282.411C494.539 245.403 555.622 215.914 592.765 229.432C605.79 234.172 618.878 243.944 625.121 256.662C632.22 271.252 628.573 288.751 640.775 301.633C642.089 303.02 646.573 305.988 648.346 307.196C647.427 308.336 645.451 308.598 644.042 308.731C638.44 309.26 634.437 306.268 630.735 302.553C629.355 309.005 627.969 312.598 625.516 318.72C628.947 327.338 630.7 331.966 635.857 339.782C627.997 337.44 623.061 334.785 617.489 328.598C610.698 336.382 589.126 350.218 579.084 351.61C577.444 351.752 568.851 355.577 565.137 356.207C555.134 357.905 546.791 357.489 537.051 354.434C533.424 353.296 528.427 351.149 525.06 350.334L524.071 350.102C517.919 344.193 511.007 339.129 503.518 335.045L504.227 334.579C509.403 335.359 521.605 347.655 526.448 349.849C541.793 356.933 556.742 358.646 572.819 353.231C603.906 342.761 617.575 299.646 610.221 270.096C606.858 256.582 592.28 245.891 578.845 243.497C575.44 242.89 562.185 240.048 559.484 241.718L559.523 242.262C560.998 242.54 560.501 242.295 561.695 243.119C561.186 245.077 560.024 246.494 558.882 248.197C560.595 251.147 561.768 250.475 563.27 254.478C570.966 274.985 560.426 294.031 546.408 309.18C534.917 321.6 523.665 329.285 505.794 329.996C506.996 329.782 508.192 329.544 509.384 329.283C502.899 328.861 500.146 328.132 494.018 325.504C489.133 323.408 475.35 313.723 473.694 309.07C473.204 308.31 472.977 308.799 472.298 307.205C472.405 297.877 478.472 290.594 481.633 283.011L481.878 282.411Z"/><path fill="#FEFDFC" d="M481.878 282.411C492.699 268.892 505.688 258.725 521.093 250.98C501.792 265.707 481.218 292.029 488.934 317.789C484.219 315.101 478.348 311.485 473.694 309.07C473.204 308.31 472.977 308.799 472.298 307.205C472.405 297.877 478.472 290.594 481.633 283.011L481.878 282.411Z"/><path fill="#FEFDFC" d="M544.432 243.556C560.273 239.188 577.866 239.709 592.771 247.669C622.291 263.433 614.988 305.707 601.399 329.795C595.19 340.802 589.872 345.289 579.084 351.61C577.444 351.752 568.851 355.577 565.137 356.207C555.134 357.905 546.791 357.489 537.051 354.434C533.424 353.296 528.427 351.149 525.06 350.334L524.071 350.102C517.919 344.193 511.007 339.129 503.518 335.045L504.227 334.579C509.403 335.359 521.605 347.655 526.448 349.849C541.793 356.933 556.742 358.646 572.819 353.231C603.906 342.761 617.575 299.646 610.221 270.096C606.858 256.582 592.28 245.891 578.845 243.497C575.44 242.89 562.185 240.048 559.484 241.718L559.523 242.262C560.998 242.54 560.501 242.295 561.695 243.119C561.186 245.077 560.024 246.494 558.882 248.197C560.595 251.147 561.768 250.475 563.27 254.478C570.966 274.985 560.426 294.031 546.408 309.18C534.917 321.6 523.665 329.285 505.794 329.996C506.996 329.782 508.192 329.544 509.384 329.283C529.951 325.789 541.399 314.93 554.098 298.242C564.053 285.16 572.214 260.115 556.066 247.926C552.941 245.567 548.255 244.536 544.432 243.556Z"/><path fill="#FEFDFC" d="M549.577 297.337C516.619 303.265 530.69 256.327 553.823 264.505C556.671 265.792 558.765 266.685 559.914 269.777C562.18 275.874 558.72 284.433 555.222 289.488C553.669 292.517 551.836 294.84 549.577 297.337Z"/><path fill="#F4E2CA" d="M553.823 264.505C556.671 265.792 558.765 266.685 559.914 269.777C562.18 275.874 558.72 284.433 555.222 289.488C555.26 280.256 558.371 273.927 553.823 264.505Z"/><defs><linearGradient id="gradient_1" gradientUnits="userSpaceOnUse" x1="520.59082" y1="280.28018" x2="513.63586" y2="324.28586"><stop offset="0" stop-color="#823834"/><stop offset="1" stop-color="#A8554F"/></linearGradient></defs><path fill="url(#gradient_1)" d="M503.276 275.963L505.033 279.494C501.735 286.533 499.367 294.624 501.34 302.388C505.118 317.259 523.398 307.993 532.698 304.834C537.101 303.338 541.114 302.155 545.654 301.039C537.958 310.755 527.311 319.867 515.367 323.102C495.296 328.538 488.558 311.443 493.681 295.124C496.189 287.137 498.669 282.834 503.276 275.963Z"/><path fill="#F4F2E0" d="M522.843 291.896C525.059 291.746 526.264 292.521 527.5 294.327C527.929 296.194 527.841 296.136 527.166 297.841C525.752 299.348 525.362 299.338 523.322 300.032C521.17 299.919 519.877 299.712 518.433 298.124C517.593 294.458 520.023 293.405 522.843 291.896Z"/><path fill="#753C3B" d="M503.276 275.963C505.338 272.253 506.691 269.991 509.904 267.249L510.806 267.009C511.369 270.053 506.728 276.819 505.033 279.494L503.276 275.963Z"/><path fill="#0D0504" d="M721.82 499.214C753.973 496.804 762.314 522.476 741.653 544.239C740.219 545.749 738.682 546.428 736.604 546.364L736.3 545.817C737.284 543.478 739.675 540.84 741.335 538.674C745.597 533.203 748.919 523.995 747.666 517.004C744.861 501.354 721.816 503.342 710.811 505.329C719.398 512.436 726.16 519.824 725.396 532.016C725.303 533.495 725.028 533.674 724.004 534.552L723.153 534.357C721.853 532.348 721.645 528.261 720.505 525.186C717.489 517.052 712.714 511.415 704.774 507.741L704.121 507.446C700.729 508.955 697.101 510.843 693.746 512.505C691.268 513.772 688.739 515.357 686.335 516.79C699.086 526.012 693.299 541.428 681.979 549.029C673.938 554.428 665.903 554.088 656.835 552.218C654.906 554.504 650.734 559.144 647.547 558.078L647.078 556.855C647.6 552.083 651.001 548.505 654.405 545.361C660.186 548.4 664.798 549.964 671.546 548.423C677.686 546.963 682.963 543.058 686.154 537.613C690.721 529.841 689.135 523.757 681.4 519.473C679.029 520.687 673.034 525.649 671.087 525.263L670.632 523.996C670.921 519.105 684.248 511.44 688.198 509.276C698.978 503.369 709.6 500.016 721.82 499.214Z"/><path fill="#E08E7F" d="M518.546 351.346L520.617 353.72C517.436 359.003 510.666 362.668 505.919 366.842C501.741 370.515 495.174 379.792 489.518 379.762C487.149 378.019 490.088 372.942 491.199 370.991C496.407 361.703 505.148 354.916 515.437 352.173L518.546 351.346Z"/><path fill="#E08E7F" d="M499.513 346.601L506.489 346.43C499.497 355.348 489.528 361.479 480.849 369.763C479.335 370.769 479.384 370.872 477.5 370.943C474.135 369.018 475.625 364.143 477.369 361.516C482.646 353.57 490.399 348.953 499.513 346.601Z"/><path fill="#0D0504" d="M573.913 218.702C587.781 217.768 603.277 221.525 614.695 229.571C624.944 236.793 635.474 249.764 637.626 262.39C635.976 260.239 632.133 252.625 629.627 248.992C608.02 219.808 582.889 219.212 549.718 223.429C556.189 220.093 566.56 219.395 573.913 218.702Z"/><path fill="#E08E7F" d="M527.147 361.576L526.104 363.515C523.361 368.636 507.379 385.766 501.964 385.444C495.571 381.296 508.274 369.467 511.717 366.719C516.684 362.754 519.77 361.386 525.876 360.136L527.147 361.576Z"/><path fill="#E08E7F" d="M528.723 371.01C529.438 371.053 530.455 371.218 531.194 371.313C532.757 372.532 532.257 371.764 532.724 373.713C531.634 379.369 518.053 391.06 513.108 396.123C510.837 395.891 509.714 395.666 508.676 393.38C508.528 391.646 508.726 390.705 509.451 389.121C513.249 380.788 520.171 374.283 528.723 371.01Z"/><path fill="#E08E7F" d="M541.153 379.497C543.522 379.365 544.838 380.899 546.722 382.438C541.477 388.241 532.812 396.109 526.988 401.657C524.385 401.497 522.606 401.491 521.207 398.984C521.042 397.593 521.086 396.437 521.829 395.208C526.686 387.182 532.381 382.198 541.153 379.497Z"/><path fill="#0D0504" d="M518.546 351.346C515.85 348.392 501.335 336.289 500.763 335.161L501.243 334.56L503.518 335.045C511.007 339.129 517.919 344.193 524.071 350.102C529.472 356.384 534.812 365.09 537.192 373.045C532.895 369.626 530.733 365.72 527.147 361.576L525.876 360.136L520.617 353.72L518.546 351.346Z"/><path fill="#E08E7F" d="M550.241 388.972C554.259 390.256 555.32 394.569 552.924 397.979C548.914 403.687 545.806 405.442 539.213 406.813C528.555 402.737 545.846 391.071 550.241 388.972Z"/><path fill="#E08E7F" d="M382.973 265.412L383.861 266.304C384.114 271.687 367.304 283.996 362.363 286.272L361.775 286.044C359.954 279.383 377.519 267.573 382.973 265.412Z"/><path fill="#0D0504" d="M482.676 167.693C485.472 168.281 487.794 171.877 488.511 174.466C490.846 182.896 488.565 191.432 484.489 198.911L483.668 199.869C487.484 186.857 489.41 180.6 482.676 167.693Z"/><path fill="#302726" d="M381.777 546.651C400.819 557.185 439.945 578.173 461.161 582.42C467.171 600.012 476.783 625.243 480.446 643.231C473.417 648.012 467.641 653.835 461.528 659.632C434.033 685.706 409.453 716.044 392.459 750.049C383.035 768.904 374.36 790.109 386.828 810.034C389.072 813.588 391.475 815.09 395.284 816.482C384.489 850.151 382.645 902.1 380.514 937.916C380.324 941.101 380.187 960.491 378.798 961.643C374.267 961.096 351.923 952.939 349.257 950.198C342.75 946.871 337.543 943.607 331.54 939.562L333.84 939.219C332.098 937.705 330.868 936.456 328.799 935.42C324.023 930.999 319.51 926.302 315.282 921.354C312.656 917.95 309.847 915.612 307.136 912.472C305.618 910.713 304.429 906.956 302.774 904.62C301.457 901.627 297.688 895.46 295.947 892.016C289.855 879.97 286.146 870.453 283.274 857.203C283.056 855.989 282.202 850.898 281.778 850.139C278.192 843.719 278.675 843.483 280.062 836.136C278.201 806.33 280.002 791.004 287.25 761.846C288.204 759.395 287.274 755.957 289.161 753.325C289.843 752.374 290.614 750.196 291.078 749.042C294.924 736.45 298.97 726.13 304.018 714.047L302.722 713.513C298.468 716.829 293.759 736.27 290.766 736.864C299.101 712.66 316.751 679.052 332.683 659.064C334.16 657.014 335.4 656.841 336.96 654.405C346.483 639.536 360.113 628.417 371.354 615.221L371.372 614.782C339.297 636.899 308.766 685.403 292.557 720.613C290.828 724.371 275.831 762.388 276.775 761.348C235.08 807.266 232.64 867.611 264.844 919.739C266.986 923.193 271.481 926.109 272.424 930.344C271.627 930.274 272.07 930.367 271.125 929.956L270.89 929.394C264.189 926.179 255.675 919.817 249.706 915.209L252.079 914.342C250.589 912.761 249.648 911.635 247.832 910.377L243.985 906.181C224.128 882.517 212.444 863.77 206.843 833.514C193.546 761.682 240.878 700.634 286.342 651.115C289.681 647.479 297.845 636.406 301.591 633.801C313.767 625.336 323.2 615.135 333.682 604.708C340.617 597.412 353.893 585.766 359.093 577.489L359.364 577.51C364.937 574.138 378.53 553.448 381.777 546.651Z"/><path fill="#F4E2CA" d="M332.683 659.064C332.247 661.704 321.46 680.36 319.608 682.87L318.583 682.151C317.212 683.267 317.734 682.595 317.044 684.306C317.283 685.209 317.473 685.901 317.778 686.783C312.758 695.646 308.166 704.744 304.018 714.047L302.722 713.513C298.468 716.829 293.759 736.27 290.766 736.864C299.101 712.66 316.751 679.052 332.683 659.064Z"/><path fill="#F4E2CA" d="M252.079 914.342C255.679 917.658 258.218 919.75 262.123 922.635C263.853 923.913 269.757 928.103 270.89 929.394C264.189 926.179 255.675 919.817 249.706 915.209L252.079 914.342Z"/><path fill="#CFBFBA" d="M333.84 939.219C336.102 940.818 348.601 948.97 349.257 950.198C342.75 946.871 337.543 943.607 331.54 939.562L333.84 939.219Z"/><path fill="#0D0504" d="M318.897 764.407L319.141 764.66C319.222 765.2 316.824 774.48 316.391 776.709C305.442 833.024 320.373 905.867 368.372 941.475C371.017 943.438 377.071 945.583 379.107 947.691L378.353 947.74C375.676 946.805 373.047 945.738 370.476 944.541C338.058 929.517 316.875 882.134 311.962 848.507C308.459 824.528 308.455 786.547 318.897 764.407Z"/><path fill="#F4F2E0" d="M486.609 664.917C483.046 666.926 478.102 671.858 474.995 674.809C458.339 690.425 443.478 707.849 430.686 726.76C427.223 731.978 412.163 754.118 420.163 758.87C431.758 759.008 515.54 683.561 532.032 669.948C547.388 657.49 563.019 645.373 578.911 633.606C585.345 628.921 591.589 624.701 598.332 620.484C605.591 615.944 609.522 613.43 617.995 617.984C636.546 627.954 650.69 646.959 657.124 666.798C652.467 671.314 648.12 673.824 643.241 677.858L643.418 678.646L641.541 679.36L641.311 678.522C630.295 686.361 614.138 696.27 601.971 702.267L601.076 701.905L600.744 702.806C597.836 705.953 554.227 731.489 549.707 732.952L548.69 733.248C546.533 736.245 502.97 761.029 497.243 764.22L496.183 764.179L495.846 762.947L494.798 763.541C494.664 765.008 494.992 765.465 493.591 766.338C488.269 769.653 457.683 787.168 453.317 788.218L452.723 788.03L451.586 788.603C449.27 792.253 424.919 801.672 419.804 803.665C417.465 793.545 412.857 783.47 408.444 774.081C410.798 785.91 414.5 793.208 417.857 804.511C410.645 807.33 405.345 809.108 397.817 810.846C392.203 802.365 387.969 793.771 389.172 783.295C393.527 745.369 453.045 672.78 482.561 649.52C484.336 654.665 485.385 659.626 486.609 664.917Z"/><path fill="#0D0504" d="M596.021 619.916C614.308 632.198 631.753 650.666 640.079 671.184C640.861 673.112 641.687 676.979 643.241 677.858L643.418 678.646L641.541 679.36L641.311 678.522C634.128 661.887 623.863 646.76 611.059 633.939C606.451 629.387 600.743 625.069 596.487 620.43L596.021 619.916Z"/><path fill="#0D0504" d="M564.441 649.899C578.399 657.126 600.294 686.314 601.076 701.905L600.744 702.806C592.477 681.847 581.74 664.603 564.441 649.899Z"/><path fill="#0D0504" d="M548.69 733.248C548.125 732.314 545.737 725.724 545.017 724.035C542.401 718.009 539.39 712.163 536.005 706.533C533.818 702.874 532.006 700.209 529.524 696.837C527.783 694.471 522.596 688.713 521.655 686.419C534.065 696.028 546.48 717.375 549.707 732.952L548.69 733.248Z"/><path fill="#0D0504" d="M494.798 763.541C492.61 743.341 488.777 738.096 479.987 720.854C489.808 733.039 496.741 747.009 495.846 762.947L494.798 763.541Z"/><path fill="#0D0504" d="M451.586 788.603C449.465 770.57 447.104 766.166 439.666 749.402C446.822 759.378 453.749 775.523 452.723 788.03L451.586 788.603Z"/><path fill="#F4F2E0" d="M659.813 674.361C662.708 676.268 670.514 690.55 672.207 694.375C671.797 695.171 671.381 695.963 670.958 696.752C656.022 724.59 613.12 739.35 585.023 750.46C548.963 764.718 512.325 779.425 478.779 799.128C454.558 813.355 435.697 827.039 408.222 835.255C404.338 836.187 401.515 836.782 397.575 837.37C398.327 830.277 399.077 822.392 400.598 815.472C434.569 810.844 478.671 783.221 508.376 765.199C519.705 758.472 531.087 751.836 542.522 745.292L592.943 715.945C616.726 702.264 637.421 690.65 659.813 674.361Z"/><path fill="#302726" d="M552.38 89.9334C565.462 88.5335 575.12 88.69 588.146 89.6992C590.778 90.1918 599.63 91.5307 602.038 91.5121C613.523 91.2263 610.164 93.158 619.419 95.5729C627.413 98.1825 635.515 100.832 643.333 103.932L646.009 101.607C648.86 102.861 654.153 104.665 655.353 107.2L654.807 108.724C650.401 117.549 649.328 124.031 647.78 133.828C593.064 105.43 511.528 118.741 466 160.571C463.309 163.043 450.016 177.643 448.68 178.322C448.176 179.555 447.899 180.406 447.111 181.501C447.1 181.334 447.09 181.167 447.079 181.001C447.758 176.958 447.275 173.086 446.958 168.975L446.837 169.436C446.781 168.834 446.749 168.23 446.741 167.625C446.684 162.15 449.94 151.926 453.744 148.107C454.95 146.352 458.504 139.502 459.986 136.998C469.857 123.306 481.232 115.154 495.517 106.875C497.839 105.865 500.604 104.677 502.851 103.508C515.669 96.8347 528.322 94.5148 542.106 91.1627C545.288 90.8881 549.073 90.2863 552.38 89.9334Z"/><path fill="#F4E2CA" d="M453.744 148.107C450.011 158.065 447.193 167.451 448.68 178.322C448.176 179.555 447.899 180.406 447.111 181.501C447.1 181.334 447.09 181.167 447.079 181.001C447.758 176.958 447.275 173.086 446.958 168.975L446.837 169.436C446.781 168.834 446.749 168.23 446.741 167.625C446.684 162.15 449.94 151.926 453.744 148.107Z"/><path fill="#F4E2CA" d="M646.009 101.607C648.86 102.861 654.153 104.665 655.353 107.2L654.807 108.724C651.006 107.071 647.181 105.473 643.333 103.932L646.009 101.607Z"/><path fill="#F4E2CA" d="M487.056 669.002C487.787 670.001 491.817 686.521 492.64 689.452C488.5 692.897 477.993 704.041 473.161 708.598C458.043 722.994 442.366 736.791 426.165 749.957L421.375 753.999C434.477 721.739 465.053 694.945 487.056 669.002Z"/><path fill="#302726" d="M591.909 173.218C612.075 171.968 631.699 175.637 649.572 185.075C650.931 197.845 653.661 209.242 656.934 221.591C655.534 220.574 649.865 213.573 648.385 211.804C632.272 192.548 614.437 183.04 591.909 173.218Z"/><path fill="#CFBFBA" d="M697.208 345.166C697.75 347.179 697.849 347.758 698.052 349.832C704.692 387.953 690.685 440.857 669.518 473.129L668.985 472.015C680.108 450.369 689.757 420.448 693.68 396.404C695.229 386.911 695.997 376.911 696.945 367.323C696.656 362.651 696.968 349.761 697.208 345.166Z"/><path fill="#CFC1BA" d="M697.208 345.166C697.75 347.179 697.849 347.758 698.052 349.832C697.68 354.088 697.65 370.004 697.363 371.378L697.183 371.016L697.59 370.56L697.067 370.128C697.04 369.262 697.043 368.163 696.945 367.323C696.656 362.651 696.968 349.761 697.208 345.166Z"/><defs><linearGradient id="gradient_2" gradientUnits="userSpaceOnUse" x1="428.19815" y1="221.62509" x2="409.55722" y2="254.67288"><stop offset="0" stop-color="#893D3A"/><stop offset="1" stop-color="#9F554C"/></linearGradient></defs><path fill="url(#gradient_2)" d="M440.028 227.14L440.398 227.146L440.676 227.577C435.049 235.975 425.704 244.052 416.467 248.102C412.291 249.934 401.548 253.16 398.381 248.874C400.331 244.199 402.556 239.644 405.044 235.232C414.56 245.755 423.904 236.297 431.093 228.694C434.065 228.53 437.097 227.761 440.028 227.14Z"/><path fill="#FEFDFC" fill-opacity="0.63921571" d="M396.069 252.812C403.227 257.482 409.986 255.824 417.457 253.231C418.174 254.556 419.02 255.837 420.544 256.223C419.558 258.062 419.523 257.5 419.636 259.306C420.8 260.33 421.431 260.221 422.986 260.359C419.469 261.677 417.668 263.287 414.122 264.44C412.377 263.942 410.206 263.015 408.625 263.614C407.726 264.798 407.885 265.187 407.825 266.698C399.558 262.282 394.019 263.894 386.23 259.523L391.633 259.778C393.487 257.361 395.041 255.678 396.069 252.812Z"/><path fill="#F4E2CA" fill-opacity="0.92941177" d="M447.111 181.501C446.713 182.053 447.004 181.723 446.073 182.319C445.113 180.81 444.677 175.153 444.398 173.031C442.501 158.581 444.992 145.635 454.136 134.013C453.557 137.244 450.459 141.911 451.34 144.461C453.784 143.799 458.324 137.257 459.571 134.924L459.986 136.998C458.504 139.502 454.95 146.352 453.744 148.107C449.94 151.926 446.684 162.15 446.741 167.625C446.749 168.23 446.781 168.834 446.837 169.436L446.958 168.975C447.275 173.086 447.758 176.958 447.079 181.001C447.09 181.167 447.1 181.334 447.111 181.501Z"/><path fill="#CFBFBA" fill-opacity="0.9254902" d="M509.184 96.4291C517.021 93.2954 530.488 90.0163 538.622 88.6841C539.707 89.0806 540.803 89.4468 541.908 89.7824L542.298 90.616L541.903 90.9194L542.106 91.1627C528.322 94.5148 515.669 96.8347 502.851 103.508C500.604 104.677 497.839 105.865 495.517 106.875C491.615 105.621 490.214 108.944 488.86 105.398C493.675 102.874 499.307 99.9201 504.47 98.2434C506.457 100.099 511.499 98.8722 512.838 97.2456C511.766 96.3178 510.666 96.491 509.184 96.4291Z"/><path fill="#F4F2E0" fill-opacity="0.83137256" d="M427.286 247.516C431.982 244.043 435.917 240.103 440.24 236.187C443.452 239.714 445.063 236.617 448.838 239.598C447.748 241.764 447.415 242.159 445.881 244.087L443.988 242.805L443.307 243.222C442.24 248.955 440.282 245.998 438.339 249.739C438.13 252.962 439.002 253.323 436.892 255.22C435.717 256.278 433.796 257.296 433.521 258.524L433.736 258.742C431.621 260.855 428.874 262.352 426.308 263.951C427.83 261.486 428.348 261.006 430.444 258.967C434.792 258.322 436.915 252.915 436.653 249.087C436.457 246.21 439.195 243.58 440.401 240.624C435.803 243.954 435.845 251.131 428.49 251.458C428.4 249.975 427.841 248.9 427.286 247.516Z"/><path fill="#CFC1BA" fill-opacity="0.76862746" d="M350.487 582.123C351.789 577.949 372.163 558.332 374.828 551.158C375.296 549.898 377.871 546.219 378.835 544.909C380.314 545.045 380.377 545.512 381.777 546.651C378.53 553.448 364.937 574.138 359.364 577.51C359.686 575.229 361.662 572.844 362.815 570.402C361.1 571.653 359.771 573.326 358.347 574.922C356.406 576.695 352.521 581.044 350.942 582.197L350.487 582.123ZM368.574 563.845C370.339 562.209 373.535 558.971 374.409 556.73C374.258 555.537 374.547 555.943 373.825 555.29C372.522 557.155 368.574 561.961 368.33 563.595L368.574 563.845Z"/><path fill="#CFC1BA" fill-opacity="0.12941177" d="M373.825 555.29C374.547 555.943 374.258 555.537 374.409 556.73C373.535 558.971 370.339 562.209 368.574 563.845L368.33 563.595C368.574 561.961 372.522 557.155 373.825 555.29Z"/><path fill="#F4E2CA" fill-opacity="0.98431373" d="M488.86 105.398C490.214 108.944 491.615 105.621 495.517 106.875C481.232 115.154 469.857 123.306 459.986 136.998L459.571 134.924L462.878 130.492C465.329 127.682 467.839 124.923 470.406 122.218C472.525 120.217 478.675 115.928 478.934 113.757C475.893 113.929 471.946 118.525 469.357 120.443L468.802 120.85C466.89 122.738 462.256 126.069 461.497 127.551C460.383 127.95 459.821 128.255 458.654 128.361C466.269 119.504 478.747 111.159 488.86 105.398Z"/><path fill="#F4E2CA" fill-opacity="0.26666668" d="M287.893 885.666C288.188 884.401 288.462 883.132 288.717 881.859C293.191 887.299 296.425 901.82 302.774 904.62C304.429 906.956 305.618 910.713 307.136 912.472C309.847 915.612 312.656 917.95 315.282 921.354C313.304 921.247 312.515 920.851 311.048 921.642C303.922 917.142 291.66 894.133 287.893 885.666Z"/><path fill="#CFBFBA" fill-opacity="0.84705883" d="M283.274 857.203C286.146 870.453 289.855 879.97 295.947 892.016C297.688 895.46 301.457 901.627 302.774 904.62C296.425 901.82 293.191 887.299 288.717 881.859C288.462 883.132 288.188 884.401 287.893 885.666C284.812 878.826 282.226 870.424 280.575 863.171L280.982 863.504L281.64 863.28C282.124 861.057 282.606 859.381 283.274 857.203Z"/><path fill="#CFBFBA" fill-opacity="0.59607846" d="M290.766 736.864C293.759 736.27 298.468 716.829 302.722 713.513L304.018 714.047C298.97 726.13 294.924 736.45 291.078 749.042L289.277 747.987C285.415 750.363 287.646 754.728 283.242 759.488C284.582 754.243 288.33 741.413 290.766 736.864Z"/><path fill="#FEFDFC" fill-opacity="0.35686275" d="M425.601 258.985C426.992 258.051 428.181 257.01 429.79 256.806L430.506 257.29C430.498 257.818 430.519 258.461 430.444 258.967C428.348 261.006 427.83 261.486 426.308 263.951C421.312 266.709 417.589 268.278 412.157 270.135C410.722 268.981 409.295 267.805 407.825 266.698C407.885 265.187 407.726 264.798 408.625 263.614C410.206 263.015 412.377 263.942 414.122 264.44C417.668 263.287 419.469 261.677 422.986 260.359L425.601 258.985Z"/><path fill="#F4E2CA" fill-opacity="0.98823529" d="M624.983 93.8446C631.243 95.6414 640.022 98.8705 646.009 101.607L643.333 103.932C635.515 100.832 627.413 98.1825 619.419 95.5729C621.74 95.3366 623.383 95.4543 624.983 93.8446Z"/><path fill="#CFBFBA" fill-opacity="0.24705882" d="M276.604 838.896C278.957 838.626 278.739 838.033 280.062 836.136C278.675 843.483 278.192 843.719 281.778 850.139C282.202 850.898 283.056 855.989 283.274 857.203C282.606 859.381 282.124 861.057 281.64 863.28L280.982 863.504L280.575 863.171C278.882 855.835 276.967 846.473 276.604 838.896Z"/><path fill="#FEFDFC" fill-opacity="0.81960785" d="M428.49 251.458C435.845 251.131 435.803 243.954 440.401 240.624C439.195 243.58 436.457 246.21 436.653 249.087C436.915 252.915 434.792 258.322 430.444 258.967C430.519 258.461 430.498 257.818 430.506 257.29L429.79 256.806C428.181 257.01 426.992 258.051 425.601 258.985C427.152 255.053 428.437 256.93 430.262 253.147L429.739 252.716C426.289 253.448 426.006 255.444 423.402 255.586C424.494 254.094 426.846 252.373 428.49 251.458Z"/><path fill="#CFBFBA" fill-opacity="0.89019608" d="M557.433 86.3871C558.772 85.9741 562.171 85.914 563.746 85.8259L567.063 86.2438L566.796 87.273C568.531 88.0898 574.635 87.2228 576.826 86.9866C579.715 87.2739 584.961 87.5488 587.446 88.342C588.112 89.2435 587.907 88.7774 588.146 89.6992C575.12 88.69 565.462 88.5335 552.38 89.9334C554.169 88.8901 556.538 87.9269 557.433 86.3871Z"/><path fill="#CFBFBA" fill-opacity="0.4627451" d="M461.497 127.551C460.409 129.162 459.361 130.287 459.223 132.175L459.987 132.371C461.031 131.733 461.873 131.19 462.878 130.492L459.571 134.924C458.324 137.257 453.784 143.799 451.34 144.461C450.459 141.911 453.557 137.244 454.136 134.013C455.423 131.812 456.961 130.262 458.654 128.361C459.821 128.255 460.383 127.95 461.497 127.551Z"/><path fill="#F4E2CA" fill-opacity="0.25098041" d="M599.204 87.7211C604.473 88.6767 620.079 92.0546 624.983 93.8446C623.383 95.4543 621.74 95.3366 619.419 95.5729C610.164 93.158 613.523 91.2263 602.038 91.5121C599.901 90.2354 598.33 90.7785 596.661 89.3022C597.49 88.1211 597.627 88.3724 599.204 87.7211Z"/><path fill="#FEFDFC" fill-opacity="0.14509805" d="M384.683 258.5C384.703 258.254 384.467 257.322 384.405 257.035C386.906 252.54 389.575 250.66 394.813 251.872L396.069 252.812C395.041 255.678 393.487 257.361 391.633 259.778L386.23 259.523L384.506 259.049L384.683 258.5Z"/><path fill="#CFC1BA" fill-opacity="0.75686276" d="M563.746 85.8259C575.304 85.0678 587.723 86.004 599.204 87.7211C597.627 88.3724 597.49 88.1211 596.661 89.3022C598.33 90.7785 599.901 90.2354 602.038 91.5121C599.63 91.5307 590.778 90.1918 588.146 89.6992C587.907 88.7774 588.112 89.2435 587.446 88.342C584.961 87.5488 579.715 87.2739 576.826 86.9866C574.089 85.666 570.094 86.0709 567.063 86.2438L563.746 85.8259Z"/><path fill="#F4E2CA" fill-opacity="0.019607844" d="M311.048 921.642C312.515 920.851 313.304 921.247 315.282 921.354C319.51 926.302 324.023 930.999 328.799 935.42L326.837 935.942C320.4 930.89 316.601 927.623 311.048 921.642Z"/><path fill="#CFBFBA" fill-opacity="0.98039216" d="M538.622 88.6841C544.472 87.4147 551.47 86.6849 557.433 86.3871C556.538 87.9269 554.169 88.8901 552.38 89.9334C549.073 90.2863 545.288 90.8881 542.106 91.1627L541.903 90.9194L542.298 90.616L541.908 89.7824C540.803 89.4468 539.707 89.0806 538.622 88.6841Z"/><path fill="#FEFDFC" fill-opacity="0.27450982" d="M417.457 253.231C421.488 251.272 423.518 250.005 427.286 247.516C427.841 248.9 428.4 249.975 428.49 251.458C426.846 252.373 424.494 254.094 423.402 255.586L420.544 256.223C419.02 255.837 418.174 254.556 417.457 253.231Z"/><path fill="#CFC1BA" fill-opacity="0.34901962" d="M283.242 759.488C287.646 754.728 285.415 750.363 289.277 747.987L291.078 749.042C290.614 750.196 289.843 752.374 289.161 753.325C287.274 755.957 288.204 759.395 287.25 761.846L286.876 761.198C285.478 761.432 284.59 760.888 283.209 760.236L283.242 759.488Z"/><path fill="#F4E2CA" fill-opacity="0.3019608" d="M468.802 120.85C470.145 121.526 469.687 121.005 470.406 122.218C467.839 124.923 465.329 127.682 462.878 130.492C461.873 131.19 461.031 131.733 459.987 132.371L459.223 132.175C459.361 130.287 460.409 129.162 461.497 127.551C462.256 126.069 466.89 122.738 468.802 120.85Z"/><path fill="#FEFDFC" fill-opacity="0.9254902" d="M423.402 255.586C426.006 255.444 426.289 253.448 429.739 252.716L430.262 253.147C428.437 256.93 427.152 255.053 425.601 258.985L422.986 260.359C421.431 260.221 420.8 260.33 419.636 259.306C419.523 257.5 419.558 258.062 420.544 256.223L423.402 255.586Z"/><path fill="#F4E2CA" fill-opacity="0.81568629" d="M468.802 120.85L469.357 120.443C471.946 118.525 475.893 113.929 478.934 113.757C478.675 115.928 472.525 120.217 470.406 122.218C469.687 121.005 470.145 121.526 468.802 120.85Z"/><path fill="#F4E2CA" fill-opacity="0.65490198" d="M247.832 910.377C249.648 911.635 250.589 912.761 252.079 914.342L249.706 915.209C247.972 913.848 246.908 912.845 245.325 911.303C245.653 911.359 246.576 911.383 246.943 911.401L247.832 910.377Z"/><path fill="#F4E2CA" fill-opacity="0.078431375" d="M243.985 906.181L247.832 910.377L246.943 911.401C246.576 911.383 245.653 911.359 245.325 911.303C244.388 910.241 242.764 908.77 241.708 907.75L243.985 906.181Z"/><path fill="#F4E2CA" fill-opacity="0.3019608" d="M509.184 96.4291C510.666 96.491 511.766 96.3178 512.838 97.2456C511.499 98.8722 506.457 100.099 504.47 98.2434L509.184 96.4291Z"/><path fill="#F4E2CA" fill-opacity="0.72941178" d="M328.799 935.42C330.868 936.456 332.098 937.705 333.84 939.219L331.54 939.562C329.775 938.351 328.36 937.482 326.837 935.942L328.799 935.42Z"/><path fill="#CFC1BA" fill-opacity="0.66274512" d="M567.063 86.2438C570.094 86.0709 574.089 85.666 576.826 86.9866C574.635 87.2228 568.531 88.0898 566.796 87.273L567.063 86.2438Z"/><path fill="#F4E2CA" fill-opacity="0.1254902" d="M358.347 574.922C359.771 573.326 361.1 571.653 362.815 570.402C361.662 572.844 359.686 575.229 359.364 577.51L359.093 577.489L358.347 574.922Z"/><path fill="#9A908D" d="M668.985 472.015L669.518 473.129C668.016 475.898 666.039 478.526 664.215 481.113C665.844 477.323 666.83 475.565 668.985 472.015Z"/><path fill="#F6CE7A" fill-opacity="0.8392157" d="M47.2487 301.62L47.7915 302.178C50.7159 296.906 47.8035 287.02 53.5282 284.082C59.776 283.551 107.972 310.494 110.5 308.222C117.944 311.571 125.427 314.831 132.948 318.004C136.369 319.457 142.89 321.996 145.996 323.649C145.613 325.675 145.548 328.105 145.404 330.209C142.779 330.963 123.08 332.095 118.993 332.468L40.7852 339.627C42.7597 329.242 44.9644 310.637 47.2487 301.62Z"/><path fill="#F6CE7A" d="M200.544 507.094L200.776 507.763C198.811 511.161 181.727 530.6 178.053 534.932C161.867 554.016 145.972 572.307 130.774 592.264L118.474 573.535C111.254 563.149 104.612 552.257 97.9249 541.534C118.937 533.816 140.389 527.193 161.665 520.282C174.639 516.068 187.587 511.43 200.544 507.094Z"/><path fill="#F6CE7A" fill-opacity="0.98823529" d="M190.303 51.9188C190.671 52.2884 234.143 145.271 235.654 149.696C227.271 143.954 218.975 138.087 210.767 132.097C196.63 120.936 181.567 110.621 166.824 100.286C160.015 95.5128 153.797 91.3831 148.004 85.3246C162.323 74.4709 176.426 63.3334 190.303 51.9188Z"/><path fill="#F6CE7A" fill-opacity="0.97647059" d="M341.682 42.4126C354.129 43.0883 366.58 43.6728 379.036 44.1661C374.454 59.3466 369.186 75.3429 364.359 90.5132C362.79 95.8164 361.459 100.489 359.419 105.642C354.016 84.4262 348.102 63.3435 341.682 42.4126Z"/><defs><linearGradient id="gradient_3" gradientUnits="userSpaceOnUse" x1="827.46234" y1="790.47784" x2="810.21747" y2="787.49823"><stop offset="0" stop-color="#D8C6BC" stop-opacity="0.9137255"/><stop offset="1" stop-color="#D3C0B7"/></linearGradient></defs><path fill="url(#gradient_3)" d="M830.121 708.439L831.461 709.003C831.51 710.75 831.342 711.479 831.06 713.166C832.75 711.351 832.283 709.31 833.755 707.807C836.041 711.698 828.331 723.786 829.756 727.634C821.126 759.072 815.362 790.319 815.499 823.081C815.511 826.056 815.629 829.793 815.431 832.72C812.587 843.156 816.577 860.99 816.582 871.122C816.098 868.98 815.992 867.612 814.332 866.302C813.251 866.776 813.755 866.434 813.096 867.893C813.051 867.752 813.006 867.611 812.961 867.47L812.748 866.762C811.654 863.196 811.558 858.57 810.281 856.618C809.407 852.897 808.786 835.95 808.614 831.544C806.844 786.189 814.886 750.799 830.121 708.439Z"/><path fill="#CFC1BA" fill-opacity="0.97647059" d="M816.582 871.122C816.577 860.99 812.587 843.156 815.431 832.72C816.727 873.207 822.315 907.935 835.145 946.494L830.632 948.638L830.229 947.246C828.767 945.868 826.732 943.434 826.238 941.51C819.229 914.268 812.636 884.586 810.281 856.618C811.558 858.57 811.654 863.196 812.748 866.762L812.961 867.47C813.006 867.611 813.051 867.752 813.096 867.893C813.34 870.32 813.575 876.922 816.046 878.038L815.499 877.553L816.618 876.733C816.929 874.288 816.812 873.627 816.582 871.122ZM825.34 919.126L822.502 907.915C822.597 907.18 819.469 895.556 818.888 894.196L818.386 894.28C817.727 897.711 818.615 906.931 820.274 909.396C820.64 914.653 821.361 916.553 823.031 921.565C823.498 923.945 824.911 932.547 827.275 933.293C828.531 930.3 826.649 922.088 825.34 919.126Z"/><path fill="#F4E2CA" fill-opacity="0.3137255" d="M825.34 919.126C826.649 922.088 828.531 930.3 827.275 933.293C824.911 932.547 823.498 923.945 823.031 921.565L823.724 920.379C824.526 919.897 824.61 919.85 825.34 919.126Z"/><path fill="#CFC1BA" fill-opacity="0.78039217" d="M820.274 909.396C818.615 906.931 817.727 897.711 818.386 894.28L818.888 894.196C819.469 895.556 822.597 907.18 822.502 907.915C821.341 908.488 820.894 908.487 820.274 909.396Z"/><path fill="#F4E2CA" fill-opacity="0.027450981" d="M822.502 907.915L825.34 919.126C824.61 919.85 824.526 919.897 823.724 920.379L823.031 921.565C821.361 916.553 820.64 914.653 820.274 909.396C820.894 908.487 821.341 908.488 822.502 907.915Z"/><path fill="#CFBFBA" fill-opacity="0.98039216" d="M855.192 654.811C858.14 653.598 858.914 648.236 862.434 647.572L863.458 648.705C849.375 675.396 838.985 698.694 829.756 727.634C828.331 723.786 836.041 711.698 833.755 707.807C832.283 709.31 832.75 711.351 831.06 713.166C831.342 711.479 831.51 710.75 831.461 709.003L830.121 708.439C833.024 700.871 850.488 660.909 855.192 654.811Z"/><path fill="#F6CE7A" fill-opacity="0.96862745" d="M50.1911 281.087C60.6631 284.344 73.8871 291.55 84.3118 296.318C89.5281 298.704 106.51 305.792 110.5 308.222C107.972 310.494 59.776 283.551 53.5282 284.082C47.8035 287.02 50.7159 296.906 47.7915 302.178L47.2487 301.62C48.0696 295.582 49.0056 286.85 50.1911 281.087Z"/><path fill="#F6CE7A" fill-opacity="0.98823529" d="M145.404 330.209C145.548 328.105 145.613 325.675 145.996 323.649C150.299 325.522 154.913 327.638 159.26 329.326C154.798 329.648 149.84 330.115 145.404 330.209Z"/><path fill="#F4E2CA" fill-opacity="0.65490198" d="M813.096 867.893C813.755 866.434 813.251 866.776 814.332 866.302C815.992 867.612 816.098 868.98 816.582 871.122C816.812 873.627 816.929 874.288 816.618 876.733L815.499 877.553L816.046 878.038C813.575 876.922 813.34 870.32 813.096 867.893Z"/><path fill="#CFC1BA" fill-opacity="0.43529412" d="M718.904 116.913C717.244 115.927 713.058 115.292 709.717 113.598C713.375 113.072 717.622 115.493 721.202 116.265L721.771 116.383L718.904 116.913Z"/></svg>